<?xml version="1.0" encoding="UTF-8"?><svg id="a" xmlns="http://www.w3.org/2000/svg" xmlns:xlink="http://www.w3.org/1999/xlink" viewBox="0 0 874.606 190.672"><defs><radialGradient id="ac" cx="779.742" cy="103.894" fx="779.742" fy="103.894" r="85.699" gradientTransform="translate(0 200.156) scale(1 -1)" gradientUnits="userSpaceOnUse"><stop offset="0" stop-color="#fff"/><stop offset=".18" stop-color="#f8f8f8"/><stop offset=".44" stop-color="#e5e6e6"/><stop offset=".74" stop-color="#c6c7c8"/><stop offset="1" stop-color="#a6a7a9"/></radialGradient><radialGradient id="ad" cx="780.182" cy="104.051" fx="780.182" fy="104.051" r="94.09" gradientTransform="translate(0 200.156) scale(1 -1)" gradientUnits="userSpaceOnUse"><stop offset=".43" stop-color="#fff"/><stop offset=".53" stop-color="#f8f8f8"/><stop offset=".68" stop-color="#e5e6e6"/><stop offset=".85" stop-color="#c6c7c8"/><stop offset="1" stop-color="#a6a7a9"/></radialGradient><radialGradient id="ae" cx="779.784" cy="94.514" fx="779.784" fy="94.514" r="64.157" gradientUnits="userSpaceOnUse"><stop offset=".014" stop-color="#fff"/><stop offset=".666" stop-color="#fdc617"/></radialGradient></defs><path id="b" d="M16.528,58.814l-12.922,3.148.845,19.925,22.241-.51c-2.393-6.077-7.441-7.098-11.562-8.444,8.946-5.601,22.185-8.41,28.159-17.412,5.802,7.359,8.363,13.063,12.836,24.625l.343,1.278,27.584.699c-.883-5.995-4.233-8.753-17.643-9.881l-.751-22.391c17.729,2.067,23.364,20.757,52.865,18.329l.339,3.512,34.759,10.863h34.437c.853-3.186-.841-6.57-5.961-8.401-5.121-1.827-12.849-.433-15.096-.197l-13.659-11.318,28.09-18.968c3.409-2.299.995-5.798,13.329-5.322-.073-5.918-2.153-8.873-9.353-8.916-6.416-.034-9.302,1.801-11.656,6.429,0,0-17.437,2.269-18.064,1.685-.69-.635-.755-9.396-.755-9.396,5.365,2.136,5.957,5.086,7.329,4.662.965-.292,1.505-3.225,1.377-6.729-2.226,1.823-3.83,2.835-5.039-3.122,11.309,3.71,17.09-3.783,14.916-8.71-1.582,10.923-13.625,7.724-14.002,4.22-.099-.909,1.565-2.83,2.59-2.8,1.364.039,2.505,1.42,4.199,2.955l.476-9.109c-7.068-3.114-13.659-6.15-19.513-6.15-5.365,0-9.718,1.561-12.072,1.141-2.359-.416-7.256-2.68-7.256-2.68l1.926,4.906c-4.512,6.098-6.999,11.18-8.835,21.979-12.171,8.835-31.817,9.559-59.298.137-17.279-5.927-29.651.069-34.759-3.186-5.121-3.272-5.005-9.992-2.552-11.781,2.453-1.788,6.562-6.047,13.844-5.678,27.001,1.368,70.101,34.81,73.536,5.155.197-5.365-7.852-11.253-12.373-13.359,5.695,6.832,7.659,15.881.592,20.083C88.765,26.782,54.662,1.956,34.729,3.783c-17.18,1.582-18.728,15.889-16.79,20.933,1.377,3.572,7.659,6.519,7.659,6.519-5.888,13.676-8.075,20.208-9.07,27.58ZM150.911,7.428c2.247-.077,4.199.472,4.31.986.094.45-.48,2.089-.995,2.209-.365.086-3.315-3.195-3.315-3.195" fill="#dce0df" fill-rule="evenodd"/><path id="c" d="M240.388,40.064h20.662c6.836,0,11.686-1.269,14.56-3.817,2.873-2.547,4.31-6.133,4.31-10.751,0-3.345-.849-6.21-2.539-8.594-1.69-2.384-3.915-3.954-6.677-4.717-1.78-.476-5.073-.712-9.868-.712h-20.448v28.592ZM229.787,82.024V2.054h30.153c5.305,0,9.362.257,12.158.763,3.928.656,7.218,1.9,9.872,3.735,2.65,1.836,4.786,4.404,6.407,7.715,1.617,3.307,2.427,6.939,2.427,10.902,0,6.797-2.166,12.548-6.489,17.257-4.323,4.7-12.137,7.055-23.437,7.055h-20.491v32.542h-10.601" fill="#dce0df"/><path id="d" d="M313.101,43.238c0,9.624,2.59,17.21,7.775,22.751,5.189,5.541,11.695,8.307,19.522,8.307,7.968,0,14.53-2.796,19.68-8.393,5.146-5.588,7.724-13.531,7.724-23.806,0-6.506-1.102-12.184-3.307-17.034-2.196-4.846-5.416-8.603-9.658-11.275-4.241-2.672-8.997-4.006-14.277-4.006-7.496,0-13.951,2.573-19.354,7.711-5.404,5.138-8.105,13.719-8.105,25.744ZM302.217,43.075c0-13.269,3.564-23.66,10.691-31.165,7.123-7.509,16.327-11.262,27.597-11.262,7.381,0,14.037,1.763,19.963,5.288,5.927,3.53,10.447,8.444,13.552,14.753,3.114,6.309,4.666,13.462,4.666,21.46,0,8.105-1.638,15.357-4.906,21.76-3.276,6.399-7.912,11.245-13.912,14.53-6,3.294-12.471,4.94-19.419,4.94-7.526,0-14.251-1.818-20.178-5.455-5.931-3.637-10.421-8.599-13.475-14.89-3.053-6.287-4.58-12.939-4.58-19.959" fill="#dce0df"/><path id="e" d="M394.13,82.024V2.054h10.597v70.552h39.365v9.418h-49.962" fill="#dce0df"/><path id="f" d="M462.662,82.024h10.6V2.054h-10.6v79.969Z" fill="#dce0df"/><path id="g" d="M489.663,82.024v-9.799l40.986-51.214c2.903-3.641,5.678-6.819,8.32-9.538h-44.683V2.054h57.296v9.418l-44.94,55.481-4.82,5.652h51.06v9.418h-63.218" fill="#dce0df"/><path id="h" d="M567.308,82.024V2.054h57.806v9.418h-47.205v24.479h44.215v9.413h-44.215v27.241h49.066v9.418h-59.667" fill="#dce0df"/><path id="i" d="M646.771,82.024h10.599V2.054h-10.599v79.969Z" fill="#dce0df"/><path id="j" d="M3.461,127.551h654.28v-7.22H3.461v7.22Z" fill="#dce0df"/><path id="k" d="M3.461,112.768h654.28v-7.216H3.461v7.216Z" fill="#00adef"/><path id="l" d="M11.854,165.115c0,2.595.236,2.775,3.066,2.775,5.485,0,8.727-2.715,8.727-7.312,0-4.366-3.006-6.84-8.431-6.84-2.951,0-3.362.527-3.362,4.01v7.368ZM11.794,181.334c0,2.71.176,3.418,1.239,4.362.828.708,2.419,1.179,4.13,1.179,4.773,0,7.78-3.242,7.78-8.431,0-5.485-3.302-8.667-9.019-8.667-3.834,0-4.13.292-4.13,3.89v7.668ZM5.249,158.219c0-2.77-.356-3.362-1.947-3.362h-1.119c-.592.056-.944.056-1.059.056-.652,0-1.124-.412-1.124-.999,0-.943.828-1.299,3.126-1.355.708,0,1.415-.06,3.894-.236.883-.06,1.767-.12,2.595-.18,2.354-.236,4.246-.292,6.188-.292,5.781,0,8.431.588,10.91,2.475,2.063,1.591,3.186,3.774,3.186,6.253,0,2.299-1.064,4.362-3.071,5.777l-1.411,1.064c-.24.176-.356.292-.356.472,0,.116.236.352.648.588l.708.472c3.598,2.063,5.545,5.249,5.545,8.907,0,7.192-5.661,11.318-15.568,11.318h-1.771c-.823-.056-1.531-.056-1.887-.056l-5.717-.176c-.592,0-2.539.176-4.602.412-.412.056-.883.116-1.119.116-.708,0-1.239-.412-1.239-1.059,0-.592.412-.888,1.531-1.124q3.658-.588,3.658-5.661v-23.407" fill="#dce0df"/><path id="m" d="M54.169,172.135c1.947,0,2.063-.06,2.063-.532,0-.176-.056-.416-.116-.648l-.296-1.064c-.116-.352-.352-1.059-.768-2.183-.472-1.415-.823-2.354-.999-2.77-.356-.943-.592-1.591-.652-1.767-.236-.708-.472-1.064-.648-1.064-.116,0-.292.296-.472.652l-.588,1.471-1.064,2.535c-.588,1.535-1.004,2.599-1.239,3.126-.236.652-.412,1.064-.472,1.295-.056.18-.116.296-.116.356.06.532.176.592,2.183.592h3.182ZM49.868,174.786c-2.479,0-2.363-.116-3.598,3.126l-2.067,5.249c-.472,1.235-.527,1.355-.527,1.887,0,1.119.999,1.711,3.594,2.183.888.116,1.179.412,1.179,1.119,0,.648-.472,1.003-1.355,1.003h-.472l-2.359-.356c-.648-.056-1.415-.116-2.183-.116-.588,0-1.355.06-2.299.116-.708.06-1.179.06-1.475.12l-1.591.236c-.352.056-1.004.116-1.239.116-.588,0-.999-.412-.999-.943,0-.823.116-.883,2.003-1.471,2.183-.652,3.006-1.359,3.894-3.186l.708-1.591,2.414-5.309,2.299-5.073,1.711-3.714c1.887-4.126,3.422-7.548,4.426-10.083.472-1.119.883-2.183,1.295-3.242.648-1.591.768-1.771.888-2.123.176-.412.352-.708.412-.943.176-.648.352-.888.648-.888.648,0,.823.12.943.532.116.236.352.828.648,1.711.296.828.532,1.535,1.299,3.654.236.828.528,1.655.763,2.479,1.064,3.186,2.419,7.196,4.13,11.974,1.059,3.062,1.947,5.601,2.595,7.308l1.591,4.422c1.124,3.126,1.651,3.598,4.893,4.486.532.176.768.412.768.883,0,.592-.472,1.003-1.179,1.003-.352,0-.944-.06-1.531-.12-.652-.116-1.771-.176-3.186-.236-1.355-.056-2.359-.116-2.946-.116-1.124,0-3.538.06-4.602.116-.768.06-1.711.12-1.887.12-.763,0-1.179-.356-1.179-1.064,0-.588.296-.883.883-.943l.888-.176c1.827-.236,2.535-.652,2.535-1.415,0-.176-.06-.472-.12-.828-.056-.116-.176-.648-.352-1.415-.296-1.119-.708-2.65-1.299-4.482l-.944-2.946c-.352-1.004-.588-1.064-3.122-1.064h-4.893" fill="#dce0df"/><path id="n" d="M87.607,178.56l.116,3.598c.06,3.598,2.063,5.073,6.9,5.073,3.242,0,6.896-1.591,9.435-4.13,2.946-2.946,4.482-7.192,4.482-12.265,0-10.79-6.429-17.515-16.747-17.515-3.834,0-4.186.592-4.186,6.724v18.514ZM81.059,158.571c0-3.478-.236-4.01-1.531-4.01-.296,0-.652.06-1.064.12-1.059.116-1.827.232-2.123.232-.943,0-1.235-.232-1.235-.883.056-1.119,1.827-1.767,5.365-2.003l6.309-.472c1.355-.06,3.478-.12,5.837-.12,8.02,0,12.325,1.124,16.159,4.19,4.362,3.538,6.78,8.963,6.78,15.387,0,5.721-2.299,10.794-6.489,14.097-3.89,3.126-7.132,4.126-13.736,4.126-1.415,0-3.126-.06-4.953-.116-3.718-.176-4.13-.176-5.425-.176-1.711,0-3.242.056-4.13.116l-1.947.176c-.292.06-.588.06-.943.06-1.175,0-1.591-.352-1.591-1.299,0-.763.356-.883,2.123-1.119,2.063-.176,2.595-1.004,2.595-4.07v-24.235" fill="#dce0df"/><path id="o" d="M125.874,159.75c0-4.717-.292-5.069-3.654-5.545-1.591-.176-1.887-.352-1.887-1.119,0-.648.352-1.059,1.004-1.059.527,0,1.175.06,1.887.176,2.475.472,8.075.828,12.381.828,2.003,0,4.07-.06,5.897-.24l2.595-.176c.592-.056,1.004-.116,1.119-.116.356-.06.708-.12.888-.12.352,0,.703.296.703.592l-.056,1.475.056,1.887c.06,1.059.12,1.943.18,2.65.06.356.06.652.06.768,0,.708-.416,1.179-.943,1.179-.532,0-.708-.236-.828-1.059-.588-4.01-2.595-5.189-8.787-5.189-3.89,0-4.066.176-4.066,4.422v6.544l.116,1.947c0,1.239.412,1.415,3.362,1.415,4.306,0,5.485-.648,6.133-3.538.296-1.415.648-1.947,1.179-1.887.472.06.648.352.648,1.004v.292c0,.476,0,.828-.06,1.064l-.176,2.65c-.06.708-.06,1.359-.06,2.007,0,.356,0,.768.06,1.119l.176,3.362c.06,1.299-.296,2.123-.943,2.123-.588,0-.883-.296-1.004-1.059l-.116-1.415c-.296-2.835-1.295-3.718-4.482-3.718h-2.359c-2.243,0-2.475.356-2.475,3.894v5.425c0,5.837.763,6.78,5.365,6.78,2.299,0,3.83-.352,5.013-1.239,1.355-.999,2.886-3.122,3.654-4.953.352-.823.592-1.059,1.119-1.059.472,0,.888.352.888.768,0,.116-.06.292-.12.532-.236.763-.592,2.063-1.004,3.95-.352,1.531-.532,2.595-.648,3.006-.176,1.059-.412,1.295-1.415,1.295-.236,0-1.475-.056-2.655-.116l-3.242-.176-3.182-.12c-2.007-.116-3.482-.176-4.366-.176-2.003,0-5.721.176-7.312.352l-2.359.236c-.176.06-.648.06-1.004.06-1.059,0-1.475-.236-1.475-.883,0-.708.296-1.119.948-1.179l1.651-.176c3.122-.356,3.594-1.359,3.594-7.784v-19.698" fill="#dce0df"/><path id="p" d="M191.507,190.002c-.472.236-.592.292-.828.292s-.532-.232-1.059-.763l-1.887-2.063-7.488-8.316-3.774-3.834c-.476-.532-1.179-1.295-2.067-2.299-1.239-1.355-2.535-2.831-3.774-4.186-1.591-1.711-1.827-1.947-2.535-2.77-2.003-2.067-1.239-1.239-4.07-4.542-1.531-1.711-1.767-2.063-1.887-2.183-.116-.176-.236-.236-.352-.236-.18,0-.296.176-.296.588v20.581l.06,2.359c0,1.887.296,2.655,1.295,3.422.828.648,1.299.763,4.482,1.119,1.119.116,1.475.296,1.475.823,0,.948-.472,1.239-2.123,1.239h-1.119l-2.007-.06-1.827-.116h-2.946c-.532,0-1.359.06-2.539.176-.883.06-2.063.176-2.239.176-.943,0-1.415-.292-1.415-.999s.176-.828,1.711-1.064c2.83-.412,4.006-1.179,4.126-2.77l.06-1.887.176-3.242.472-20.465c.06-3.122-.472-3.774-3.242-4.07l-1.771-.176c-1.355-.176-1.591-.292-1.591-.999s.472-1.124,1.179-1.124c.116,0,.592,0,1.295.06l1.535.116c1.119.064,1.827.12,1.947.12h3.302l3.418-.236c1.124.236,1.415.472,2.539,2.007.116.116,1.059,1.235,2.535,2.886.352.356.823.888,1.415,1.595.943,1.179,1.947,2.359,2.891,3.534.999,1.184,1.355,1.595,2.003,2.303l7.724,8.551,3.006,3.418c.652.648.592.592,1.064,1.179.236.236.412.352.592.352.176,0,.292-.232.292-.643v-.476l.06-4.717v-12.853c0-3.718-.412-4.717-1.947-4.898l-2.595-.232-1.179-.06c-.527-.12-.708-.356-.708-.883,0-.828.412-1.064,1.711-1.064.412,0,1.064.06,1.711.06,1.295.12,2.179.176,2.535.176h2.239c.476,0,1.475-.056,2.951-.236,1.059-.116,2.123-.176,2.419-.176.708,0,1.059.292,1.059.883,0,.648-.292.943-1.059,1.064l-1.535.236c-2.063.292-2.359.708-2.595,3.478l-.116,1.179c-.06.472-.06,1.179-.06,1.947l-.472,21.52-.176,7.196" fill="#dce0df"/><path id="q" d="M202.061,178.796c-.296,0-.532-.296-.532-.588,0-.352.176-1.124.532-1.947.176-.588.352-.999.412-1.355.296-.883.532-1.119,1.239-1.119h9.199c.999,0,1.295.176,1.295.823,0,.296-.06.412-.588,1.831-.06.232-.236.708-.472,1.471-.236.648-.532.883-1.239.883h-9.847" fill="#dce0df"/><path id="r" d="M251.414,152.79c.292,0,.708-.056,1.239-.116.879-.176,1.591-.236,2.239-.236.823,0,1.415.416,1.415,1.003,0,.472-.296.763-.883.883l-1.535.296c-1.767.352-2.475,1.059-4.186,4.306l-1.767,3.302c-.532,1.119-1.179,2.359-1.831,3.77-.412,1.004-.708,1.655-.883,1.891-.176.412-.296.768-.296.943s.12.467.296.823c.176.412.412.943,1.119,2.595.296.592.532,1.119.768,1.711.176.412.296.708.352.883l2.419,4.898c.176.467.296.588.472.588.236,0,.412-.176.652-.588l.236-.532c.116-.176.352-.652.648-1.355l2.414-5.369,4.13-9.259c1.591-3.654,2.595-6.484,2.595-7.428,0-.648-.356-1.004-1.179-1.239-2.003-.532-2.123-.648-2.183-1.239-.06-.467.472-.943,1.004-.943.352,0,.828.06,1.355.12,1.124.176,2.243.292,2.83.292,1.651,0,2.715-.056,3.774-.232.236-.06.416-.06.592-.06.648,0,1.059.412,1.059.943,0,.648-.292.883-1.355,1.059-1.355.236-2.063.828-2.83,2.299l-1.591,3.246c-.356.763-1.004,2.239-1.887,4.306-.828,1.887-1.415,3.182-1.711,3.89l-4.361,9.615c-.592,1.355-1.064,2.239-1.239,2.65l-.768,1.475-1.239,2.71c-.883,1.947-1.531,3.246-1.651,3.542-.588,1.531-.768,1.827-1.239,1.827-.056,0-.176-.06-.292-.12-.236-.116-.296-.356-1.947-3.89l-2.655-5.841-1.295-2.886c-.532-1.064-.708-1.415-.888-1.415-.236,0-.588.588-2.003,3.302l-1.531,3.006-1.595,3.182c-.943,1.771-1.943,3.422-2.65,4.366-.18.352-.416.472-.712.472-.292,0-.412-.12-.763-.828l-2.243-4.422c-.648-1.355-1.355-2.83-2.063-4.482l-1.947-4.306-4.01-8.959-2.183-5.133c-.352-.883-.648-1.475-.763-1.711l-1.771-3.242c-1.004-1.827-1.235-2.003-3.006-2.359-.943-.176-1.355-.532-1.299-1.179.06-.648.356-.943,1.064-.943.236,0,.648,0,1.179.06.296.056.768.056,1.355.056.648.064,1.064.064,1.299.064h2.359c.823,0,1.415,0,1.591-.064l3.302-.292h.708c.708,0,1.064.236,1.064.823,0,.883-.24,1.064-1.595,1.179-.823.12-1.239.532-1.239,1.179,0,.356.06.768.18,1.119.648,1.711,1.471,3.718,2.535,5.961.412.939.768,1.707,1.004,2.239l2.886,6.72,1.535,3.542.768,1.823c1.707,3.834,2.003,4.366,2.419,4.366.292,0,.467-.292,1.355-1.827.883-1.651,1.415-2.77,2.359-4.717.588-1.299.763-1.887.763-2.419,0-.352-.176-.823-.527-1.531-1.415-2.775-3.658-7.784-4.482-9.967-1.711-4.246-2.83-5.661-5.013-6.193-1.355-.296-1.591-.532-1.651-1.415-.06-.472.356-.768.943-.768h.296l1.235.12c.888.056,2.83.12,3.954.12h2.299c1.119,0,2.239-.064,3.478-.18.532-.06.828-.06,1.239-.06.823,0,1.179.176,1.239.768.116.768-.416,1.064-2.303,1.299-.763.056-1.119.292-1.119.823,0,.296.296,1.239.708,2.299.12.356.356.948.708,1.771.592,1.475,1.064,2.479,1.299,3.006.648,1.475,1.059,2.479,1.179,2.71.116.24.176.356.296.356.116,0,.236-.116.292-.292.06-.12.236-.416.472-.888.12-.296.356-.708.592-1.239l.763-1.651c.768-1.651,1.42-3.302,2.067-5.009.176-.356.236-.708.236-1.004,0-.768-.356-1.004-1.827-1.239l-1.064-.12c-.648-.116-.883-.292-.883-.823,0-.708.352-.943,1.239-.943.823,0,1.119,0,2.71.236.768.06,1.355.116,1.767.116h1.595" fill="#dce0df"/><path id="s" d="M298.117,146.425c0,1.827-1.239,3.126-3.006,3.126s-3.066-1.244-3.066-3.011,1.295-3.066,3.066-3.066c1.651,0,3.006,1.299,3.006,2.951ZM290.157,146.481c0,1.771-1.299,3.011-3.126,3.011-1.651,0-2.891-1.239-2.891-2.951,0-1.767,1.239-3.066,2.891-3.066,1.767,0,3.126,1.299,3.126,3.006ZM282.665,175.909c0,9.079,2.479,12.085,9.851,12.085,4.717,0,8.547-1.767,10.143-4.597.943-1.771,1.355-4.542,1.355-9.671v-14.8c0-2.359-.768-3.658-2.299-3.954l-1.064-.176-1.295-.352c-.768-.18-1.119-.472-1.119-.828,0-.532.763-1.119,1.471-1.119.236,0,1.355.116,3.066.292.356.064.708.064,1.064.064h1.059c1.707,0,2.419-.064,4.186-.24.472-.056.828-.056,1.239-.056.708,0,1.119.296,1.119.823,0,.823-.116.883-2.123,1.239-2.359.412-3.066,1.471-3.066,4.773v15.392c-.056,6.9-.823,9.555-3.418,11.974-2.359,2.123-6.664,3.418-11.498,3.418-5.249,0-9.671-1.415-12.21-3.95-2.239-2.243-3.006-4.657-3.006-9.259v-18.574c0-3.242-.412-3.714-3.302-3.774-1.179-.06-1.711-.416-1.711-1.179,0-.883.592-1.064,3.011-1.064.588,0,1.119,0,1.591.06l2.003.236c.296,0,.828.06,1.595.06l2.003.056c.472,0,1.535-.056,3.006-.232.532-.06,1.064-.12,1.359-.12,1.827,0,2.359.296,2.359,1.355,0,.532-.356.768-1.179.828-4.07.292-4.19.412-4.19,5.481v15.808" fill="#dce0df"/><path id="t" d="M326.186,166.239c0,3.182.176,3.418,2.239,3.418,6.193,0,9.139-2.359,9.139-7.312,0-4.838-3.006-7.844-7.9-7.844-3.302,0-3.478.18-3.478,3.538v8.2ZM343.816,188.998l-3.362.176c-.588-.176-.883-.708-2.003-3.066l-.652-1.415c-2.179-4.717-3.538-7.252-5.009-9.727-2.067-3.362-2.299-3.538-4.482-3.538-1.475,0-1.771.467-1.771,2.886v7.668c0,4.126.176,4.542,2.359,4.953l2.183.352c.768.18,1.119.472,1.119,1.064,0,.648-.412,1.003-1.239,1.003-.292,0-.648,0-.943-.06l-1.591-.176c-.943-.06-1.887-.12-2.77-.176l-3.774-.12c-.356,0-1.239.06-2.479.176l-2.71.236c-.532.06-1.064.06-1.299.06-.763,0-1.119-.296-1.119-.943,0-.592.356-.944,1.119-1.064l.652-.056c3.594-.532,3.95-1.124,3.95-5.897v-23.531l-.06-.939c-.06-1.595-.412-1.891-2.595-2.007-2.77-.12-3.006-.236-3.006-1.179,0-.768.352-1.004,1.295-1.004h.888c.176,0,.648.06,1.235.06,1.299.12,2.243.176,2.891.176h3.186c.467.06,1.295,0,2.359-.12,2.71-.176,4.422-.292,6.073-.292,4.361,0,6.369.472,8.316,2.123,2.063,1.591,3.242,4.13,3.242,6.84,0,3.418-2.183,6.429-5.837,8.02-.532.236-.768.412-.768.648,0,.06,0,.176.06.296l.236.472c.056.116.352.708.823,1.475.12.176.356.588.708,1.179.356.648.828,1.531,1.415,2.535.943,1.531,1.651,2.655,1.831,3.006,3.478,6.017,4.006,6.604,7.488,7.608l1.415.412c.708.236.883.412.883.883,0,.888-.412,1.124-1.887,1.124h-.472l-1.887-.06-4.01-.06" fill="#dce0df"/><path id="u" d="M378.991,152.91c3.482,0,4.777-.412,5.369-1.767.292-.652.472-.768.883-.768.648,0,.823.236.823,1.119,0,.296-.056.768-.116,1.359-.12.708-.176,1.295-.236,1.707v1.299l-.12,1.591c0,.056,0,.472.06,1.119v.472c0,1.239-.236,1.591-1.059,1.591-.296,0-.472-.412-1.004-2.239-.883-2.831-2.299-3.598-6.725-3.598h-2.946c-2.063,0-2.535.412-2.479,2.359l.06,25.534c0,3.834.176,3.95,4.246,4.246,1.355.056,1.887.412,1.887,1.179,0,.708-.412,1.004-1.295,1.004-.236,0-1.004,0-1.595-.06-5.193-.146-9.311-.094-14.444.176-1.064,0-1.415-.292-1.415-1.059,0-.592.352-.888,1.119-.944l1.355-.176c3.242-.416,3.598-.948,3.598-4.717v-24.831c0-2.414-.296-2.71-2.951-2.71h-1.591c-3.598,0-5.721,1.004-7.488,3.422l-1.771,2.414c-.412.532-.527.652-.883.652-.352,0-.588-.18-.588-.532,0-.296.116-.652.472-1.711.352-1.003.708-2.063,1.119-3.654l.532-2.067.588-2.003c.176-.708.412-.944.943-.944.592,0,.648.06.828.592.292.939,1.235,1.647,2.299,1.823.472.064,1.475.12,3.066.12h19.457" fill="#dce0df"/><path id="v" d="M418.734,152.91c3.482,0,4.777-.412,5.369-1.767.296-.652.472-.768.883-.768.648,0,.828.236.828,1.119,0,.296-.06.768-.12,1.359-.116.708-.18,1.295-.236,1.707v1.299l-.12,1.591c0,.056,0,.472.06,1.119v.472c0,1.239-.236,1.591-1.059,1.591-.296,0-.472-.412-1.004-2.239-.883-2.831-2.299-3.598-6.725-3.598h-2.946c-2.063,0-2.535.412-2.475,2.359l.056,25.534c0,3.834.176,3.95,4.25,4.246,1.351.056,1.883.412,1.883,1.179,0,.708-.412,1.004-1.295,1.004-.236,0-1.004,0-1.595-.06-5.193-.146-9.311-.094-14.444.176-1.064,0-1.415-.292-1.415-1.059,0-.592.352-.888,1.119-.944l1.355-.176c3.242-.416,3.598-.948,3.598-4.717v-24.831c0-2.414-.292-2.71-2.951-2.71h-1.591c-3.598,0-5.721,1.004-7.488,3.422l-1.771,2.414c-.412.532-.527.652-.883.652-.352,0-.588-.18-.588-.532,0-.296.116-.652.472-1.711.352-1.003.708-2.063,1.119-3.654l.532-2.067.588-2.003c.176-.708.412-.944.943-.944.592,0,.652.06.828.592.292.939,1.235,1.647,2.299,1.823.472.064,1.475.12,3.066.12h19.457" fill="#dce0df"/><path id="w" d="M434.597,159.75c0-4.717-.296-5.069-3.654-5.545-1.595-.176-1.887-.352-1.887-1.119,0-.648.352-1.059.999-1.059.532,0,1.179.06,1.887.176,2.479.472,8.08.828,12.385.828,2.003,0,4.066-.06,5.897-.24l2.595-.176c.588-.056,1.004-.116,1.119-.116.352-.06.708-.12.883-.12.352,0,.708.296.708.592l-.056,1.475.056,1.887c.06,1.059.12,1.943.18,2.65.056.356.056.652.056.768,0,.708-.412,1.179-.943,1.179s-.708-.236-.823-1.059c-.592-4.01-2.595-5.189-8.787-5.189-3.89,0-4.07.176-4.07,4.422v6.544l.12,1.947c0,1.239.412,1.415,3.362,1.415,4.301,0,5.481-.648,6.128-3.538.3-1.415.652-1.947,1.184-1.887.467.06.648.352.648,1.004v.292c0,.476,0,.828-.06,1.064l-.176,2.65c-.06.708-.06,1.359-.06,2.007,0,.356,0,.768.06,1.119l.176,3.362c.06,1.299-.296,2.123-.943,2.123-.588,0-.883-.296-1.004-1.059l-.116-1.415c-.296-2.835-1.299-3.718-4.482-3.718h-2.359c-2.239,0-2.479.356-2.479,3.894v5.425c0,5.837.768,6.78,5.365,6.78,2.303,0,3.838-.352,5.013-1.239,1.355-.999,2.891-3.122,3.654-4.953.356-.823.592-1.059,1.124-1.059.472,0,.883.352.883.768,0,.116-.056.292-.116.532-.236.763-.592,2.063-1.004,3.95-.352,1.531-.532,2.595-.648,3.006-.176,1.059-.416,1.295-1.415,1.295-.236,0-1.475-.056-2.655-.116l-3.242-.176-3.186-.12c-2.003-.116-3.478-.176-4.361-.176-2.003,0-5.721.176-7.312.352l-2.363.236c-.176.06-.643.06-.999.06-1.064,0-1.475-.236-1.475-.883,0-.708.296-1.119.943-1.179l1.651-.176c3.126-.356,3.598-1.359,3.598-7.784v-19.698" fill="#dce0df"/><path id="x" d="M501.997,181.39c0,4.426.472,5.013,4.717,5.781.943.176,1.299.412,1.299,1.004,0,.708-.532.999-1.651.999-.296,0-1.531-.056-2.595-.056-1.475-.06-2.891-.12-4.07-.12h-1.827l-3.302.12-1.179.056c-.592.06-1.004.06-1.359.06-.999,0-1.531-.352-1.531-1.179,0-.532.356-.823,1.239-.943,3.006-.588,3.598-1.059,3.598-3.066.202-7.424.244-14.761-.06-22.172,0-.472-.176-.708-.472-.708s-.472.18-.652.648c-.056.12-.176.416-.352.768-.356.883-.708,1.651-.943,2.299l-1.827,4.898-1.475,3.654c-.883,2.359-1.475,3.834-1.531,4.01l-.948,2.303-.588,1.531c-.588,1.475-1.119,2.946-1.415,3.774-.708,2.063-1.179,2.891-1.651,2.891-.588,0-.883-.472-2.299-3.658l-3.186-7.196-.999-2.299-.708-1.647c-.24-.536-.652-1.419-1.124-2.595-.883-2.067-1.591-3.658-2.183-4.898-.467-1.119-.823-1.947-.943-2.183-.292-.703-.532-1.179-.588-1.355l-.296-.648c-.236-.412-.412-.592-.588-.592-.236,0-.356.18-.356.476v.412l-.06,4.717v15.152c0,3.774.712,4.898,3.362,5.365l1.184.18,1.059.236c.708.116.943.296.943.828,0,.823-.532,1.175-1.595,1.175-.588,0-1.355-.056-2.299-.176-1.299-.176-2.359-.292-3.182-.292h-1.651c-.532,0-1.535.056-2.83.232-1.831.18-2.419.236-2.77.236-.708,0-1.124-.352-1.124-.999,0-.828.236-1.004,2.007-1.179,3.006-.356,3.302-.652,3.594-3.774l.12-1.887.472-8.967,1.004-14.092c.056-.352.056-.763.056-1.004,0-1.767-.883-2.475-3.714-2.886-1.947-.296-2.535-.592-2.535-1.299,0-.648.352-.999,1.004-.999.176,0,.472,0,.648.056l2.063.236c.883.06,2.655.176,3.658.176.412,0,.768,0,1.059-.056,1.355-.06,2.299-.12,2.539-.12.768,0,1.119.296,1.475,1.124,1.805,4.164,3.778,8.277,5.597,12.441.708,1.591,1.475,3.186,2.183,4.717.943,1.887,1.064,2.243,1.595,3.126l.943,1.827c.176.352.412.592.527.592.18,0,.356-.18.532-.592.352-.652,1.711-3.954,2.535-6.073l2.183-5.721,2.419-6.369c1.767-4.657,2.063-5.013,4.597-5.013h4.422l4.306.06c1.124,0,1.591.296,1.591.943,0,.588-.352.943-1.119,1.059l-1.531.176c-3.478.476-3.538.536-3.478,6.96l.056,19.517" fill="#dce0df"/><path id="y" d="M523.225,165.115c0,2.595.236,2.775,3.066,2.775,5.485,0,8.727-2.715,8.727-7.312,0-4.366-3.006-6.84-8.431-6.84-2.951,0-3.362.527-3.362,4.01v7.368ZM523.165,181.334c0,2.71.18,3.418,1.239,4.362.823.708,2.419,1.179,4.13,1.179,4.773,0,7.78-3.242,7.78-8.431,0-5.485-3.298-8.667-9.019-8.667-3.834,0-4.13.292-4.13,3.89v7.668ZM516.621,158.219c0-2.77-.352-3.362-1.943-3.362h-1.124c-.588.056-.943.056-1.059.056-.652,0-1.124-.412-1.124-.999,0-.943.828-1.299,3.126-1.355.708,0,1.415-.06,3.894-.236.883-.06,1.767-.12,2.595-.18,2.359-.236,4.241-.292,6.193-.292,5.777,0,8.427.588,10.906,2.475,2.063,1.591,3.186,3.774,3.186,6.253,0,2.299-1.064,4.362-3.066,5.777l-1.415,1.064c-.236.176-.356.292-.356.472,0,.116.236.352.648.588l.708.472c3.598,2.063,5.545,5.249,5.545,8.907,0,7.192-5.661,11.318-15.568,11.318h-1.771c-.823-.056-1.531-.056-1.883-.056l-5.721-.176c-.592,0-2.539.176-4.602.412-.412.056-.883.116-1.119.116-.708,0-1.239-.412-1.239-1.059,0-.592.412-.888,1.535-1.124q3.654-.588,3.654-5.661v-23.407" fill="#dce0df"/><path id="z" d="M554.004,159.75c0-4.717-.292-5.069-3.654-5.545-1.591-.176-1.887-.352-1.887-1.119,0-.648.352-1.059,1.004-1.059.532,0,1.179.06,1.887.176,2.475.472,8.08.828,12.381.828,2.007,0,4.07-.06,5.897-.24l2.595-.176c.592-.056,1.004-.116,1.124-.116.352-.06.708-.12.883-.12.352,0,.708.296.708.592l-.06,1.475.06,1.887c.06,1.059.12,1.943.176,2.65.06.356.06.652.06.768,0,.708-.416,1.179-.943,1.179-.532,0-.708-.236-.828-1.059-.588-4.01-2.595-5.189-8.783-5.189-3.894,0-4.07.176-4.07,4.422v6.544l.116,1.947c0,1.239.416,1.415,3.362,1.415,4.306,0,5.485-.648,6.133-3.538.296-1.415.648-1.947,1.179-1.887.472.06.648.352.648,1.004v.292c0,.476,0,.828-.056,1.064l-.18,2.65c-.06.708-.06,1.359-.06,2.007,0,.356,0,.768.06,1.119l.18,3.362c.056,1.299-.296,2.123-.948,2.123-.588,0-.883-.296-.999-1.059l-.116-1.415c-.3-2.835-1.299-3.718-4.486-3.718h-2.359c-2.243,0-2.475.356-2.475,3.894v5.425c0,5.837.763,6.78,5.365,6.78,2.299,0,3.834-.352,5.013-1.239,1.355-.999,2.891-3.122,3.654-4.953.356-.823.592-1.059,1.124-1.059.467,0,.883.352.883.768,0,.116-.06.292-.116.532-.24.763-.592,2.063-1.008,3.95-.352,1.531-.528,2.595-.648,3.006-.18,1.059-.412,1.295-1.415,1.295-.236,0-1.471-.056-2.65-.116l-3.246-.176-3.182-.12c-2.007-.116-3.478-.176-4.366-.176-2.003,0-5.717.176-7.312.352l-2.359.236c-.176.06-.648.06-.999.06-1.064,0-1.475-.236-1.475-.883,0-.708.292-1.119.943-1.179l1.651-.176c3.122-.356,3.594-1.359,3.594-7.784v-19.698" fill="#dce0df"/><path id="aa" d="M593.043,166.239c0,3.182.176,3.418,2.239,3.418,6.193,0,9.143-2.359,9.143-7.312,0-4.838-3.006-7.844-7.904-7.844-3.302,0-3.478.18-3.478,3.538v8.2ZM610.674,188.998l-3.358.176c-.592-.176-.888-.708-2.007-3.066l-.648-1.415c-2.183-4.717-3.538-7.252-5.013-9.727-2.063-3.362-2.299-3.538-4.482-3.538-1.475,0-1.771.467-1.771,2.886v7.668c0,4.126.18,4.542,2.363,4.953l2.183.352c.763.18,1.115.472,1.115,1.064,0,.648-.407,1.003-1.235,1.003-.296,0-.648,0-.948-.06l-1.591-.176c-.939-.06-1.887-.12-2.77-.176l-3.774-.12c-.352,0-1.239.06-2.475.176l-2.715.236c-.527.06-1.059.06-1.295.06-.768,0-1.119-.296-1.119-.943,0-.592.352-.944,1.119-1.064l.648-.056c3.598-.532,3.954-1.124,3.954-5.897v-23.531l-.064-.939c-.056-1.595-.412-1.891-2.595-2.007-2.77-.12-3.006-.236-3.006-1.179,0-.768.356-1.004,1.299-1.004h.883c.176,0,.648.06,1.239.06,1.295.12,2.243.176,2.886.176h3.186c.472.06,1.299,0,2.359-.12,2.715-.176,4.422-.292,6.073-.292,4.366,0,6.369.472,8.316,2.123,2.063,1.591,3.242,4.13,3.242,6.84,0,3.418-2.183,6.429-5.837,8.02-.532.236-.768.412-.768.648,0,.06,0,.176.06.296l.236.472c.06.116.356.708.823,1.475.12.176.356.588.712,1.179.352.648.823,1.531,1.415,2.535.943,1.531,1.651,2.655,1.827,3.006,3.478,6.017,4.006,6.604,7.488,7.608l1.415.412c.708.236.883.412.883.883,0,.888-.412,1.124-1.883,1.124h-.476l-1.887-.06-4.01-.06" fill="#dce0df"/><path id="ab" d="M659.105,171.664c1.235,0,1.651.232,1.591.939-.056.768-.296.948-1.531,1.064-3.538.356-3.834.592-4.014,3.598l-.116,2.71v3.658c0,3.006-.236,3.358-3.006,4.602-3.066,1.295-6.604,1.943-10.85,1.943-12.621,0-21.289-7.548-21.289-18.574,0-11.854,8.903-19.933,21.936-19.933,4.898,0,10.674,1.299,11.322,2.535.472.828.888,3.834.888,6.489,0,.652-.24.883-.888.883-.588,0-.768-.292-1.531-2.003-2.063-4.422-4.486-5.957-9.495-5.957-8.787,0-14.684,7.076-14.684,17.455,0,9.379,6.604,17.043,14.744,17.043,3.298,0,5.365-1.059,6.013-3.182.236-.828.472-2.539.652-4.662.116-1.235.176-2.063.176-2.71,0-2.891-.476-3.538-2.83-3.598l-2.479-.06c-1.711-.056-1.947-.176-1.947-1.004,0-.883.652-1.235,2.299-1.235h.888c.823,0,1.355.056,1.711.056l3.298.12c.828.056,1.535.056,2.183.056.943,0,2.243-.056,3.834-.116.943-.06,1.651-.116,2.063-.116h1.064" fill="#dce0df"/><path d="M841.174,115.821c.68-2.144,1.247-4.322,1.698-6.525,1.771.054,3.527-.336,5.109-1.134,8.931-4.568,17.603-11.916,17.603-11.916,0,0-8.664-7.309-17.603-11.916-1.585-.804-3.348-1.194-5.124-1.134-.459-2.196-1.033-4.366-1.721-6.502,1.652-1.022,3.065-2.388,4.142-4.005,3.474-6.131,6.377-12.569,8.672-19.232,0,0-11.093-2.162-21.121-1.896-1.836.179-3.618.717-5.246,1.584-1.406-1.558-2.883-3.046-4.431-4.462.917-1.699,1.438-3.583,1.523-5.512.266-10.02-2.17-21.121-2.17-21.121,0,0-10.56,3.807-18.951,9.205-1.53.959-2.83,2.243-3.807,3.761-1.934-.645-3.916-1.195-5.946-1.652-.054-1.851-.506-3.669-1.325-5.33-3.512-6.143-7.59-11.945-12.182-17.329,0,0-7.614,8.375-12.182,17.329-.826,1.575-1.281,3.317-1.332,5.094-2.24.457-4.454,1.034-6.632,1.728-1.024-1.625-2.369-3.023-3.952-4.111-6.13-3.478-12.568-6.384-19.232-8.68-1.14,6.985-1.773,14.044-1.896,21.121.235,1.741.826,3.416,1.736,4.918-1.812,1.598-3.532,3.296-5.155,5.086-1.609-.922-3.404-1.473-5.253-1.614-10.02-.266-21.121,1.896-21.121,1.896,0,0,4.568,12.182,9.205,19.225.624,1.013,1.995,2.109,3.86,3.236-.729,2.166-1.339,4.369-1.827,6.601-1.811-.037-3.611.303-5.284.997-8.931,4.873-17.329,12.182-17.329,12.723s8.375,7.85,17.329,12.73c1.667.689,3.458,1.026,5.261.99.487,2.238,1.092,4.449,1.812,6.624-1.483.788-2.781,1.883-3.807,3.213-4.568,7.043-9.205,19.225-9.205,19.225,0,0,11.101,2.17,21.121,1.896,1.797-.125,3.544-.645,5.116-1.523,1.624,1.817,3.35,3.541,5.17,5.162-.867,1.455-1.429,3.072-1.652,4.751.122,7.077.756,14.135,1.896,21.121,6.668-2.291,13.112-5.191,19.248-8.664,1.512-1.035,2.805-2.357,3.807-3.891,2.233.715,4.502,1.31,6.799,1.782.078,1.684.528,3.33,1.317,4.82,4.568,8.939,12.182,17.329,12.182,17.329,4.593-5.383,8.671-11.185,12.182-17.329.79-1.585,1.239-3.317,1.317-5.086,2.091-.472,4.144-1.043,6.16-1.713.943,1.429,2.181,2.639,3.632,3.548,8.375,5.413,18.951,9.205,18.951,9.205,0,0,2.436-11.108,2.17-21.121-.092-1.864-.597-3.684-1.477-5.33,1.576-1.447,3.046-2.969,4.5-4.568,1.589.833,3.324,1.35,5.109,1.523,10.02.274,21.121-1.896,21.121-1.896-2.291-6.66-5.188-13.095-8.657-19.225-1.072-1.616-2.479-2.982-4.127-4.005Z" fill="url(#ac)" fill-rule="evenodd"/><path d="M716.065,82.069c-1.732,0-3.447.349-5.04,1.028-8.208,4.477-17.588,12.113-17.588,13.141s9.38,8.664,17.573,13.134c1.624.683,3.37,1.028,5.132,1.013v.046c.442,1.987.99,3.967,1.622,5.916h0c-1.428.776-2.67,1.855-3.639,3.16-4.568,6.989-9.197,19.179-9.243,19.301l-.198.518.541.107c.114,0,11.268,2.178,21.22,1.903,1.719-.092,3.399-.552,4.926-1.348l.046-.046c1.494,1.646,3.069,3.217,4.721,4.705v.053c-.809,1.405-1.327,2.959-1.523,4.568.119,7.125.75,14.231,1.888,21.265l.091.533.518-.168c.099,0,10.705-3.594,19.316-8.71,1.478-.996,2.75-2.268,3.746-3.746h.053c2.033.64,4.096,1.18,6.091,1.607v.091c.121,1.599.575,3.155,1.332,4.568,4.568,8.87,12.182,17.329,12.243,17.413l.35.396.35-.396c4.611-5.413,8.71-11.242,12.243-17.413.778-1.539,1.234-3.22,1.34-4.941h.053c1.85-.426,3.693-.936,5.482-1.523l.046.046c.935,1.349,2.138,2.492,3.533,3.358,8.322,5.368,18.928,9.205,19.034,9.243l.495.183.114-.518c0-.114,2.444-11.276,2.178-21.235-.079-1.828-.552-3.617-1.386-5.246h.069c1.37-1.271,2.71-2.642,3.997-4.066l.069.046c1.53.758,3.187,1.225,4.888,1.378,9.966.266,21.128-1.881,21.235-1.903l.525-.107-.168-.503c0-.107-3.594-10.705-8.703-19.316-1.027-1.575-2.373-2.916-3.952-3.936v-.069c.609-1.957,1.112-3.913,1.523-5.832h.069c1.705.013,3.387-.395,4.896-1.188,8.855-4.568,17.573-11.885,17.664-11.961l.426-.358-.426-.358c-.091-.076-8.809-7.401-17.694-11.976-1.531-.799-3.237-1.205-4.964-1.18v-.046c-.411-1.911-.921-3.868-1.523-5.809h0c1.583-1.018,2.932-2.36,3.959-3.936,5.109-8.611,8.672-19.217,8.71-19.316l.168-.51-.525-.099c-.107,0-11.268-2.17-21.22-1.903-1.745.146-3.447.618-5.017,1.393h-.046v-.038c-1.721-1.888-3.106-3.175-3.944-3.959h0c.868-1.667,1.359-3.505,1.439-5.383.266-9.951-2.155-21.113-2.178-21.227l-.114-.518-.495.175c-.107,0-10.713,3.875-19.034,9.258-1.477.924-2.741,2.151-3.708,3.601h-.053c-1.744-.563-3.525-1.051-5.33-1.462h0c-.091-1.802-.555-3.565-1.363-5.177-3.534-6.17-7.632-12-12.243-17.413l-.35-.396-.35.388c-.076.084-7.682,8.543-12.258,17.428-.811,1.522-1.279,3.204-1.37,4.926h-.046c-1.972.411-3.982.944-5.962,1.561l-.023-.038c-1.021-1.547-2.335-2.879-3.868-3.921-8.619-5.116-19.225-8.68-19.331-8.718l-.518-.175-.091.541c-1.141,7.013-1.778,14.1-1.903,21.204.212,1.686.767,3.31,1.629,4.774l-.061.061c-1.637,1.462-3.183,3-4.614,4.568h-.069c-1.566-.853-3.299-1.355-5.078-1.469-9.944-.266-21.105,1.881-21.212,1.903l-.541.107.198.518c.046.122,4.675,12.311,9.251,19.324.99,1.306,2.249,2.384,3.693,3.16v.046c-.64,1.934-1.18,3.921-1.629,5.893l-.091.008ZM844.874,120.039c5.056,8.52,8.588,19.034,8.619,19.133l.35-.601c-.107,0-11.162,2.155-21.014,1.888-1.719-.166-3.39-.665-4.918-1.469l-.32-.152-.236.259c-1.431,1.599-2.931,3.122-4.469,4.568l-.259.236.152.312c.852,1.589,1.341,3.346,1.431,5.147.266,9.852-2.132,20.907-2.155,21.022l.609-.343c-.107,0-10.606-3.807-18.859-9.137-1.398-.88-2.592-2.048-3.502-3.426l-.198-.282-.327.107c-1.995.662-4.051,1.233-6.091,1.698l-.335.076v.343c-.072,1.702-.5,3.37-1.256,4.896-4.797,8.786-12.053,17.161-12.121,17.253h.693c-.076-.084-7.614-8.451-12.113-17.23-.759-1.436-1.19-3.022-1.264-4.644v-.35l-.343-.069c-2.278-.469-4.53-1.059-6.746-1.766l-.327-.107-.198.289c-.99,1.47-2.261,2.73-3.738,3.708-6.099,3.45-12.501,6.335-19.126,8.619l.609.365c-1.133-6.96-1.764-13.993-1.888-21.044.223-1.601.764-3.142,1.591-4.53l.175-.327-.274-.244c-1.816-1.617-3.539-3.336-5.162-5.147l-.244-.266-.32.16c-1.502.862-3.177,1.382-4.903,1.523-9.86.221-20.915-1.949-21.029-1.949l.35.624c.046-.122,4.637-12.182,9.137-19.133.548-.891,1.782-1.919,3.677-3.046l.32-.19-.114-.35c-.714-2.16-1.313-4.356-1.797-6.578l-.076-.358h-.365c-1.735.038-3.459-.284-5.063-.944-8.741-4.766-16.674-11.687-17.108-12.464.012.05.012.102,0,.152.012.05.012.102,0,.152.426-.761,8.375-7.698,17.123-12.471,1.61-.673,3.341-1.005,5.086-.975h.365l.076-.358c.486-2.214,1.09-4.399,1.812-6.548l.122-.358-.32-.19c-1.911-1.15-3.152-2.185-3.7-3.046-4.568-6.929-9.137-19.034-9.137-19.149l-.35.624c.114,0,11.169-2.155,21.022-1.888,1.777.126,3.504.647,5.056,1.523l.312.16.244-.266c1.61-1.777,3.318-3.462,5.116-5.048l.274-.251-.175-.327c-.877-1.442-1.45-3.049-1.683-4.721.126-7.038.757-14.058,1.888-21.006l-.609.365c.107,0,10.614,3.563,19.133,8.626,1.523,1.052,2.818,2.402,3.807,3.967l.198.289.327-.107c2.164-.687,4.362-1.259,6.586-1.713l.343-.076v-.35c.048-1.705.483-3.376,1.271-4.888,4.53-8.794,12.053-17.161,12.121-17.253h-.693c.069.084,7.332,8.459,12.121,17.245.79,1.612,1.224,3.375,1.271,5.17v.35l.343.076c2.01.449,4.012,1.005,5.946,1.645l.327.107.198-.289c.928-1.462,2.168-2.699,3.632-3.624,8.276-5.33,18.776-9.137,18.882-9.175l-.609-.335c0,.114,2.421,11.169,2.155,21.006-.096,1.869-.616,3.692-1.523,5.33l-.16.312.266.236c1.523,1.401,3.046,2.886,4.401,4.431l.236.266.32-.16c1.571-.836,3.292-1.353,5.063-1.523,9.837-.266,20.892,1.865,20.999,1.888l-.35-.609c0,.107-3.563,10.614-8.619,19.133-1.039,1.56-2.402,2.876-3.997,3.86l-.289.198.107.335c.68,2.119,1.249,4.271,1.705,6.449l.076.365h.373c1.697-.065,3.382.305,4.896,1.074,8.809,4.568,17.451,11.801,17.512,11.87v-.7c-.084.069-8.733,7.324-17.512,11.855-1.515.774-3.203,1.146-4.903,1.081h-.282l-.076.365c-.451,2.188-1.015,4.35-1.69,6.479l-.107.335.289.198c1.564.976,2.904,2.274,3.929,3.807h0Z" fill="#1a171b" fill-rule="evenodd"/><path d="M758.085,106.807s-51.18,23.823-55.238,30.326c-5.413,8.375-5.413,6.495,3.807,6.228,7.85-.266,53.342-33.577,53.076-33.577l6.502,6.495s-32.496,45.759-32.739,53.89c-.266,9.746-1.081,8.664,6.502,3.518,6.495-4.332,29.252-55.786,29.252-55.786l8.931,2.436s-4.88,56.06-1.355,63.095c4.066,8.939,2.977,9.213,7.317,0,3.243-7.309-2.71-63.095-2.71-63.095l8.939-2.162s23.831,50.913,30.326,55.238c8.664,5.687,6.776,5.962,6.228-3.807-.274-7.857-33.577-53.35-33.577-53.35l6.495-6.228s45.766,32.496,53.89,32.496c11.375.541,9.205,2.162,3.807-6.228-4.568-6.769-55.786-29.244-56.052-29.244l2.703-8.939s55.786,4.873,62.829,1.355c9.479-4.568,9.753-2.703,0-7.309-7.035-3.251-62.829,2.436-63.095,2.436l-2.17-8.939c0,.266,50.913-23.557,55.238-30.059,6.502-9.479,5.687-7.614-4.058-6.495-8.124.807-52.801,33.851-53.076,33.577l-6.228-6.228s31.978-45.759,32.739-53.89c1.089-11.101,1.629-9.746-6.769-4.066-6.814,4.637-29.016,56.106-29.016,56.106l-8.961-2.459s5.147-56.053,1.896-63.095c-4.34-9.479-3.251-9.479-7.85.274-3.251,7.309,2.703,62.821,2.703,62.821l-8.931,2.459s-23.534-50.928-30.31-55.261c-9.205-5.954-6.769-6.495-6.236,3.487.274,8.124,33.577,53.342,33.577,53.342l-6.502,6.495s-45.751-32.427-53.875-32.732c-9.205-.266-9.746-2.703-3.518,6.502,4.332,6.776,55.512,29.244,55.512,29.244l-2.436,9.205s-55.786-5.406-63.11-1.888c-8.124,4.058-8.939,2.985,0,7.309,7.309,3.518,63.095-1.896,63.095-1.896l2.452,8.398Z" fill="url(#ad)" fill-rule="evenodd"/><path d="M757.887,106.38c-2.094.959-51.347,23.961-55.451,30.501l-1.736,2.634c-1.728,2.589-2.284,3.464-1.903,4.157s1.302.571,3.54.396c1.127-.091,2.535-.198,4.294-.251,3.365-.114,13.362-5.802,29.694-16.903,6.609-4.477,12.578-8.718,16.423-11.474,7.393-5.33,7.393-5.383,7.385-5.68v-.464h-1.553l.799.799,6.495,6.495-.053-.601c-1.325,1.873-32.572,45.972-32.846,54.141l-.084,2.688c-.129,3.381-.175,4.644.609,5.063s1.66-.251,3.868-1.843c.761-.548,1.713-1.233,2.84-1.995,6.533-4.363,28.483-53.875,29.412-55.984l-.548.259,8.931,2.436-.343-.495c-.198,2.284-4.85,56.266-1.31,63.346l1.302,2.947c1.302,2.992,1.789,4.111,2.68,4.119s1.469-1.218,2.969-4.477l1.203-2.589c3.266-7.347-2.421-61.062-2.672-63.339l-.35.503,8.939-2.162-.541-.251c.975,2.079,23.961,51.081,30.493,55.428,1.249.815,2.284,1.523,3.114,2.094,2.429,1.667,3.251,2.231,3.913,1.835s.541-1.325.305-3.617c-.122-1.188-.274-2.657-.381-4.515-.274-7.895-32.305-51.735-33.668-53.593l-.053.617,6.502-6.228-.594.046c1.873,1.332,45.979,32.579,54.157,32.579,2.079.099,3.738.244,4.949.343,2.474.206,3.312.274,3.632-.312s-.152-1.15-1.249-2.566c-.761-1.02-1.881-2.429-3.16-4.408-4.644-6.852-56.075-29.465-56.441-29.465l.449.601,2.703-8.939-.487.327c2.284.198,55.992,4.85,63.072,1.31,1.744-.845,3.144-1.462,4.287-1.957,2.284-1.013,3.183-1.393,3.183-2.132s-.853-1.127-3.403-2.231c-1.081-.472-2.436-1.058-4.073-1.835-5.984-2.764-45.614.693-62.38,2.284l-.936.091.48.358-2.17-8.939-.921.114v.373l.343.107c.19.061.35.107,8.505-3.769,3.434-1.629,10.332-4.949,17.976-8.824,12.083-6.137,26.976-14.184,29.283-17.656l.952-1.386c2.779-4.035,3.723-5.398,3.183-6.251s-1.698-.563-4.401-.16c-1.142.175-2.566.381-4.241.571-6.327.632-33.653,19.91-46.779,29.176-3.388,2.391-6.091,4.279-6.388,4.431.167-.065.356-.023.48.107l-6.228-6.243.053.601c1.31-1.873,32.031-45.957,32.846-54.111l.244-2.436c.449-4.347.601-5.817-.259-6.319s-1.85.289-4.393,2.101c-.883.632-1.888,1.34-3.091,2.155-6.799,4.652-28.224,54.202-29.138,56.281l.548-.266-8.931-2.436.343.495c.213-2.284,5.109-56.258,1.85-63.331l-1.226-2.779c-1.523-3.342-2.04-4.568-2.992-4.568s-1.523,1.279-3.137,4.728l-1.34,2.886c-3.266,7.355,2.421,60.803,2.665,63.072l.343-.503-8.931,2.436.548.251c-.967-2.063-23.702-51.081-30.508-55.436-1.736-1.127-3.046-2.071-4.058-2.756-1.949-1.37-2.612-1.835-3.183-1.523s-.457,1.043-.213,2.939c.168,1.256.381,2.969.503,5.253.274,8.162,32.305,51.774,33.668,53.593l.053-.609-6.502,6.502.601-.053c-1.873-1.302-45.972-32.549-54.141-32.815-1.987-.053-3.594-.221-4.759-.335-1.98-.198-2.886-.289-3.251.335s.206,1.591,2.284,4.568l1.843,2.688c4.355,6.799,53.616,28.491,55.71,29.412l-.259-.548-2.436,9.213.495-.35c-2.284-.221-55.999-5.391-63.339-1.85-1.195.594-2.2,1.066-3.091,1.523-2.566,1.112-3.617,1.607-3.617,2.474s1.279,1.523,4.705,3.183l1.957.944c7.347,3.54,61.062-1.629,63.346-1.85l-.487-.335,2.429,8.375.251-.541ZM755.603,97.944h0c-.556.053-55.74,5.33-62.852,1.934l-1.964-.914c-2.193-1.051-4.089-1.957-4.172-2.345h0c.076-.32,1.584-1.028,3.046-1.705.853-.396,1.903-.891,3.106-1.523,7.104-3.419,62.281,1.888,62.844,1.949h.396l.099-.388,2.436-9.213.099-.388-.365-.16c-.51-.221-51.096-22.491-55.306-29.069l-1.85-2.703c-1.256-1.804-2.238-3.236-2.2-3.586-.006.03-.022.057-.046.076.797-.086,1.602-.058,2.391.084,1.18.122,2.809.282,4.827.343,7.888.266,53.174,32.358,53.631,32.678l.32.228.282-.282,6.495-6.495.289-.282-.236-.327c-.335-.449-33.226-45.195-33.501-53.083-.122-2.322-.35-4.058-.51-5.33-.137-.692-.19-1.397-.16-2.101-.036.063-.102.103-.175.107.814.385,1.58.863,2.284,1.424.982.693,2.337,1.645,4.089,2.787,6.578,4.21,29.922,54.537,30.158,55.047l.168.358.381-.107,8.939-2.436.381-.107-.038-.396c-.061-.556-5.908-55.466-2.741-62.585l1.34-2.886c.975-2.117,1.888-4.119,2.284-4.18h0c.381.069,1.241,2.002,2.147,4.051l1.226,2.825c3.16,6.852-1.881,62.296-1.934,62.852v.388l.381.107,8.931,2.436.396.107.16-.373c.221-.51,22.225-51.378,28.803-55.855,1.218-.822,2.284-1.568,3.106-2.17,1.523-1.066,3.046-2.17,3.388-2.048h0c.327.274.084,2.657-.198,5.413l-.251,2.444c-.761,7.911-32.366,53.205-32.686,53.662l-.221.32.274.282,6.228,6.228c.32.32.358.297,2.406-1.127l4.705-3.304c12.045-8.497,40.254-28.399,46.345-29.008,1.698-.19,3.129-.404,4.279-.571,1.584-.236,3.221-.48,3.472-.266h0c.137.442-1.317,2.558-3.16,5.231l-.959,1.393c-4.058,6.091-52.367,29.092-54.956,29.869l.381.076.183.373-.921.114,2.17,8.931.084.358h.373l1.005-.091c34.757-3.342,57.865-4.233,61.892-2.391,1.652.761,3.007,1.37,4.096,1.843,1.011.352,1.971.836,2.855,1.439-.018-.041-.018-.088,0-.129-.816.56-1.701,1.011-2.634,1.34-1.142.495-2.566,1.119-4.325,1.972-6.852,3.426-62.022-1.355-62.577-1.401h-.381l-.107.358-2.703,8.939-.183.601h.556-.129c.464.16,51.332,22.499,55.801,29.062,1.287,2.002,2.391,3.426,3.19,4.462.447.504.833,1.058,1.15,1.652-.004-.073.031-.142.091-.183-.935.072-1.875.039-2.802-.099-1.218-.099-2.893-.244-5.01-.343-7.903,0-53.182-32.084-53.639-32.412l-.312-.221-.282.266-6.495,6.228-.297.282.236.335c.335.457,33.226,45.462,33.501,53.083.107,1.896.259,3.373.381,4.568.164.907.2,1.832.107,2.749.022-.026.051-.044.084-.053-.312,0-1.523-.807-2.954-1.782-.838-.571-1.873-1.287-3.122-2.109-6.312-4.203-29.922-54.537-30.166-55.047l-.16-.35-.373.091-8.931,2.17-.396.099.046.411c.061.556,5.908,55.74,2.749,62.852l-1.195,2.589c-.944,2.056-1.751,3.807-2.124,3.936h0c-.343-.107-1.074-1.789-1.85-3.563l-1.31-2.969c-3.426-6.852,1.348-62.296,1.393-62.859v-.388l-.373-.099-8.939-2.436-.388-.107-.16.365c-.228.51-22.765,51.37-29.077,55.58-1.134.761-2.094,1.462-2.863,2.01-1.325.952-2.581,1.85-2.886,1.774h0c-.274-.244-.206-2.079-.122-4.218l.091-2.695c.266-7.888,32.358-53.174,32.678-53.631l.228-.32-.274-.282-6.502-6.502-.327.761-.434-.297.107-.495c-.358.327-45.096,33.173-52.763,33.44-1.774.053-3.198.16-4.332.251-.891.133-1.797.133-2.688,0,.004.018.004.036,0,.053-.046-.327.838-1.652,1.858-3.19l1.744-2.65c3.952-6.312,54.537-29.914,55.047-30.158l.365-.168-.114-.381-2.436-8.375-.107-.373-.327.046Z" fill="#1a171b" fill-rule="evenodd"/><path d="M777.112,55.779l2.931-4.089,2.68,4.081h2.832l-.457.381c-2.094,2.101-1.812,6.852,2.147,7.081,2.181.082,4.015-1.62,4.097-3.801.036-.955-.275-1.89-.876-2.633l-.495-.64,2.65.167,2.703-3.655,2.604,4.325,3.114.472-.586.541c-2.391,1.454-2.345,6.342,1.37,7.081,3.716.739,5.741-3.335,3.967-5.992l-.503-.761,2.162.495,2.474-2.908s-2.771,50.708-3.32,57.766c-.601,7.774-5.733,23.648-26.58,23.648s-25.993-15.859-26.58-23.633c-.548-7.058-3.807-57.804-3.807-57.804l2.566,3.007,2.162-.495-.51.761c-1.774,2.657.228,6.723,3.974,5.984,3.746-.739,3.754-5.619,1.37-7.081l-.449-.556,2.908-.503,2.132-4.287,3.358,3.594,2.513-.175-.503.64c-1.372,1.697-1.109,4.185.588,5.557.743.601,1.678.912,2.633.876,3.959-.228,4.233-4.979,2.147-7.081l-.312-.388h2.886l.008.023Z" fill="url(#ae)" isolation="isolate"/><path d="M780.097,52.452l-2.741,3.807s-2.216,0-2.284.046c2.474,2.474,1.02,7.218-2.642,7.431-2.373.106-4.383-1.733-4.489-4.106-.047-1.047.291-2.075.948-2.891l-1.881.129-3.175-3.373-1.987,3.967s-2.474.472-2.52.426c2.604,1.576,2.65,6.913-1.523,7.728s-6.274-3.67-4.355-6.533l-1.523.343-1.82-2.117c.685,10.705,3.16,49.307,3.708,56.342.601,7.667,5.55,23.108,26.207,23.108s25.605-15.441,26.207-23.108c.548-7.043,2.596-45.683,3.274-56.403l-1.736,2.124-1.523-.343c1.919,2.855-.213,7.34-4.355,6.533s-4.096-6.144-1.523-7.728c-.046.046-2.581-.365-2.581-.365l-2.421-3.997-2.513,3.373-2.056-.129c1.491,1.85,1.2,4.558-.65,6.049-.816.658-1.844.995-2.891.948-3.67-.213-5.116-4.949-2.642-7.431-.046-.046-2.063,0-2.063,0l-2.513-3.807.061-.023ZM780.097,137.726c-21.425,0-26.587-16.134-27.212-24.037-.632-8.177-3.86-58.885-3.86-58.885l3.335,3.518,3.16-.7c-3.807,4.02-.525,7.789,1.987,7.218,3.563-.807,3.761-5.817-.426-7.477l4.127-.761,2.474-4.682,3.685,3.913,3.609-.259c-3.898,3.601-1.454,7.522,1.523,7.286s4.477-4.949.19-7.408l4.096-.137,3.274-4.271,3.046,4.271,3.898.107c-4.279,2.467-2.817,7.18.19,7.408s5.451-3.685,1.523-7.286l3.723.259,3.046-3.974,3.046,4.705,4.134.761c-4.188,1.66-3.997,6.67-.426,7.477,2.513.571,5.817-3.198,1.987-7.218l3.167.7,3.327-3.518s-2.794,50.761-3.441,58.961c-.617,7.903-5.779,24.037-27.204,24.037l.023-.008Z" fill="#1a171b"/><path d="M780.097,56.845l-2.497,8.01s-8.375.388-10.058.662l-.305.053-2.924-7.56-1.683,8.147c-3.314.505-6.6,1.181-9.845,2.025l-2.901-6.091v-1.789l3.32,6.967c2.36-.64,6.335-1.386,8.786-1.782l2.117-10.187,3.624,9.403c1.949-.244,7.873-.556,9.19-.624l3.175-9.639,2.688,9.647c1.317.069,7.241.388,9.19.624l3.35-9.327,2.619,10.126c2.452.404,6.175,1.005,8.649,1.591l3.525-8.451-.327,2.573-2.619,6.852c-3.289-.841-6.628-1.472-9.997-1.888l-2.01-8.337-2.505,7.667c-1.69-.274-10.522-.632-10.522-.632l-2.04-8.04Z" fill="#1a171b"/><path d="M750.837,70.481c-.045.008-.092.008-.137,0v-.761c17.032-5.482,41.632-5.512,58.664,0l-.053.761c-16.91-5.52-41.495-5.505-58.443,0h-.03Z" fill="#1a171b"/><path d="M750.883,72.628h-.122l-.076-1.028c16.994-5.451,41.465-5.49,58.497-.046l-.061,1.043c-16.872-5.474-41.366-5.451-58.245,0l.008.03Z" fill="#1a171b"/><path d="M768.767,114.321c0,.206,0,.495.114.548s.586-.183.822-.761c-.323-.022-.646.041-.936.183v.03ZM766.681,116.605c-.167-.693-.294-1.394-.381-2.101.053-.206,2.284-1.31,4.515-1.31.5-.024,1,.065,1.462.259.554-.217,1.141-.341,1.736-.365-.069.761-.426.975-.426.975.799.442,1.69,2.947,1.812,4.393,1.112.518,4.294,2.414,10.202-.137,3.921-1.683,6.951.67,7.69-1.576.168-.518.168-1.195-.868-1.865-1.218-.761-3.426-.457-6.7,1.074-2.589,1.211-4.941,1.964-6.236,1.972-1.57,0-2.843-1.27-2.848-2.84.069-1.713,2.513-2.627,2.657-2.421.251.373-1.713,1.683-.761,3.205s2.398.799,3.152.579c3.046-.921,7.934-4.34,11.238-2.604,2.87,1.523,1.523,4.812.114,4.972.864,1.611,1.429,3.365,1.667,5.177l2.49.815-.114,3.891h-4.424s-.563-1.523,2.162-1.843c-1.885-.736-3.617-1.815-5.109-3.183-1.073,1.533-1.89,3.23-2.421,5.025h-5.33s-.655-1.766,3.266-1.949c-.012-1.421.052-2.842.19-4.256-2.436.099-4.18,3.708-9.692,3.754-.046.213-.168.579-.168.579-2.1.799-4.262,1.426-6.464,1.873h-6.51c0-.373-.373-1.896,3.571-1.607.876-.811,1.835-1.525,2.863-2.132-1.363-.685-4.629-2.787-5.292-3.677,0-1.02-.617-1.683-2.406-.838-.168-2.185,2.733-3.046,3.913-.868,1.093.043,2.18.194,3.243.449.069-.503.145-1.157.213-1.37-.236.213-1.081.845-1.363.601-.358-.401-.529-.935-.472-1.469.358.624.845.419.99-.266-.959.099-4.325.761-3.312-2.947.373,1.363.761,2.68,3.289,2.178-.069-.335-.761-1.203-1.173-.152l.03.008Z" fill="#1a171b"/><path d="M765.722,93.718c0,.244,0,.586.145.64s.761-.213,1.051-.86c-.412-.027-.825.046-1.203.213l.008.008ZM763.209,96.414c-.211-.804-.371-1.62-.48-2.444.061-.244,2.878-1.523,5.756-1.523.628.039,1.25.141,1.858.305.712-.255,1.46-.399,2.216-.426-.091.914-.541,1.127-.541,1.127,1.02.518,2.155,3.426,2.284,5.109,1.858.761,5.467,2.809,13.004-.152,4.987-1.964,8.855.761,9.791-1.835.221-.601.221-1.386-1.104-2.17-1.523-.914-4.363-.525-8.543,1.256-3.297,1.409-6.289,2.284-7.934,2.284-1.858,0-3.708-1.431-3.624-3.304.091-1.987,3.205-3.046,3.388-2.817.32.434-2.185,1.957-.929,3.731s3.046.936,4.02.67c3.921-1.066,10.103-5.048,14.321-3.046,3.655,1.759,1.919,5.596.152,5.779,1.02,1.317,2.002,4.766,2.132,6.022l3.167.944-.145,4.523h-5.687s-.716-1.804,2.756-2.147c-2.37-.834-4.572-2.085-6.502-3.693-1.888,2.109-3.084,5.84-3.084,5.84h-6.738s-.838-2.048,4.165-2.284c-.015-1.653.063-3.305.236-4.949-2.726.122-5.482,4.309-12.342,4.37-.061.244-.213.67-.213.67-2.674.944-5.415,1.687-8.2,2.223h-8.375c0-.426-.48-2.2,4.568-1.865,1.13-.949,2.354-1.778,3.655-2.474-1.736-.761-5.901-3.243-6.738-4.279,0-1.195-.868-1.957-3.144-.982-.213-2.535,3.563-3.518,5.063-1.005,1.391.048,2.774.222,4.134.518.061-.533.152-1.062.274-1.584-.305.244-1.378.975-1.744.7-.445-.453-.663-1.082-.594-1.713.449.761,1.074.487,1.256-.305-1.226.122-5.512.914-4.218-3.426.48,1.591.921,3.114,4.195,2.535-.091-.396-.959-1.409-1.523-.183h.008Z" fill="#1a171b"/><path d="M762.806,75.636c-.216-.808-.379-1.63-.487-2.459.061-.251,2.947-1.523,5.901-1.523.643.04,1.281.145,1.903.312.735-.257,1.506-.401,2.284-.426-.091.921-.556,1.134-.556,1.134,1.043.525,2.216,3.441,2.368,5.132,1.903.761,5.611,2.817,13.332-.152,5.124-1.972,9.083.761,10.05-1.843.221-.601.228-1.393-1.134-2.185-1.599-.921-4.469-.533-8.763,1.264-3.373,1.409-6.449,2.284-8.139,2.284-1.903,0-3.807-1.439-3.716-3.32.091-1.995,3.289-3.046,3.472-2.825.327.434-2.246,1.972-.952,3.746s3.137.936,4.119.678c4.028-1.074,10.362-5.071,14.687-3.046,3.754,1.759,1.972,5.619.152,5.802,1.043,1.325,2.056,4.797,2.185,6.091l3.259.952-.152,4.568h-5.84s-.761-1.812,2.825-2.155c-2.424-.836-4.682-2.094-6.67-3.716-1.934,2.117-3.16,5.87-3.16,5.87h-6.936s-.86-2.063,4.271-2.284c-.012-1.663.07-3.325.244-4.979-2.794.122-5.619,4.332-12.654,4.393-.061.244-.213.678-.213.678-2.76.935-5.584,1.665-8.451,2.185h-8.543c0-.434-.495-2.216,4.667-1.873,1.163-.956,2.421-1.79,3.754-2.49-1.782-.761-6.053-3.259-6.913-4.302,0-1.195-.891-1.964-3.228-.982-.213-2.551,3.655-3.533,5.193-1.013,1.426.051,2.845.226,4.241.525.062-.538.154-1.071.274-1.599-.305.244-1.416.982-1.782.708-.455-.451-.679-1.084-.609-1.721.457.761,1.104.495,1.287-.305-1.256.122-5.657.921-4.325-3.441.487,1.599.952,3.137,4.302,2.551-.091-.396-.99-1.416-1.523-.183l-.023-.053ZM765.478,72.933c0,.251,0,.586.152.647s.761-.213,1.074-.86c-.422-.029-.845.044-1.233.213h.008Z" fill="#1a171b"/></svg>