<?xml version="1.0" encoding="UTF-8"?><svg id="ag" xmlns="http://www.w3.org/2000/svg" xmlns:xlink="http://www.w3.org/1999/xlink" viewBox="0 0 113.386 24.719"><defs><radialGradient id="ad" cx="101.088" cy="16394.35" fx="101.088" fy="16394.35" r="11.11" gradientTransform="translate(0 16406.829) scale(1 -1)" gradientUnits="userSpaceOnUse"><stop offset="0" stop-color="#fff"/><stop offset=".18" stop-color="#f9f9f9"/><stop offset=".44" stop-color="#e5e6e6"/><stop offset=".74" stop-color="#c7c7c8"/><stop offset="1" stop-color="#a5a7a8"/></radialGradient><radialGradient id="ae" cx="101.144" cy="16394.37" fx="101.144" fy="16394.37" r="12.198" gradientTransform="translate(0 16406.829) scale(1 -1)" gradientUnits="userSpaceOnUse"><stop offset=".43" stop-color="#fff"/><stop offset=".53" stop-color="#f9f9f9"/><stop offset=".68" stop-color="#e5e6e6"/><stop offset=".85" stop-color="#c7c7c8"/><stop offset="1" stop-color="#a5a7a8"/></radialGradient><radialGradient id="af" cx="101.093" cy="12.253" fx="101.093" fy="12.253" r="8.317" gradientUnits="userSpaceOnUse"><stop offset=".014" stop-color="#fff"/><stop offset=".666" stop-color="#fdc619"/></radialGradient><symbol id="a" viewBox="0 0 113.386 24.719"><g id="b"><path id="c" d="M2.143,7.625l-1.675.408.11,2.583,2.883-.066c-.31-.788-.965-.92-1.499-1.095,1.16-.726,2.876-1.09,3.651-2.257.752.954,1.084,1.694,1.664,3.192l.044.166,3.576.091c-.115-.777-.549-1.135-2.287-1.281l-.097-2.903c2.298.268,3.029,2.691,6.854,2.376l.044.455,4.506,1.408h4.465c.111-.413-.109-.852-.773-1.089-.664-.237-1.666-.056-1.957-.026l-1.771-1.467,3.642-2.459c.442-.298.129-.752,1.728-.69-.009-.767-.279-1.15-1.213-1.156-.832-.004-1.206.234-1.511.833,0,0-2.261.294-2.342.219-.09-.082-.098-1.218-.098-1.218.696.277.772.659.95.604.125-.038.195-.418.178-.872-.289.236-.496.368-.653-.405,1.466.481,2.216-.49,1.934-1.129-.205,1.416-1.766,1.001-1.815.547-.013-.118.203-.367.336-.363.177.005.325.184.544.383l.062-1.181c-.916-.404-1.771-.797-2.53-.797-.696,0-1.26.202-1.565.148-.306-.054-.941-.347-.941-.347l.25.636c-.585.791-.907,1.449-1.145,2.849-1.578,1.145-4.125,1.239-7.688.018-2.24-.768-3.844.009-4.506-.413-.664-.424-.649-1.295-.331-1.527.318-.232.851-.784,1.795-.736,3.5.177,9.088,4.513,9.533.668.026-.696-1.018-1.459-1.604-1.732.738.886.993,2.059.077,2.604C11.508,3.472,7.087.254,4.502.49c-2.227.205-2.428,2.06-2.177,2.714.178.463.993.845.993.845-.763,1.773-1.047,2.62-1.176,3.576ZM19.564.963c.291-.01.544.061.559.128.012.058-.062.271-.129.286-.047.011-.43-.414-.43-.414" fill="#231f20" fill-rule="evenodd"/><path id="d" d="M31.164,5.194h2.679c.886,0,1.515-.165,1.888-.495.373-.33.559-.795.559-1.394,0-.434-.11-.805-.329-1.114-.219-.309-.508-.513-.866-.612-.231-.062-.658-.092-1.279-.092h-2.651v3.707ZM29.79,10.634V.266h3.909c.688,0,1.214.033,1.576.099.509.085.936.246,1.28.484.344.238.62.571.831,1,.21.429.315.9.315,1.413,0,.881-.281,1.627-.841,2.237-.56.609-1.573.915-3.038.915h-2.656v4.219h-1.374" fill="#231f20"/><path id="e" d="M40.591,5.605c0,1.248.336,2.231,1.008,2.949.673.718,1.516,1.077,2.531,1.077,1.033,0,1.884-.363,2.551-1.088.667-.724,1.001-1.754,1.001-3.086,0-.843-.143-1.58-.429-2.208-.285-.628-.702-1.115-1.252-1.462-.55-.346-1.166-.519-1.851-.519-.972,0-1.809.334-2.509,1-.701.666-1.051,1.779-1.051,3.338ZM39.18,5.584c0-1.72.462-3.067,1.386-4.04.923-.974,2.117-1.46,3.578-1.46.957,0,1.82.229,2.588.686.768.458,1.354,1.095,1.757,1.913.404.818.605,1.745.605,2.782,0,1.051-.212,1.991-.636,2.821-.425.83-1.026,1.458-1.804,1.884-.778.427-1.617.64-2.517.64-.976,0-1.848-.236-2.616-.707-.769-.471-1.351-1.115-1.747-1.93-.396-.815-.594-1.677-.594-2.588" fill="#231f20"/><path id="f" d="M51.096,10.634V.266h1.374v9.146h5.103v1.221h-6.477" fill="#231f20"/><path id="g" d="M59.98,10.634h1.374V.266h-1.374v10.367Z" fill="#231f20"/><path id="h" d="M63.481,10.634v-1.27l5.314-6.64c.376-.472.736-.884,1.079-1.237h-5.793V.266h7.428v1.221l-5.826,7.193-.625.733h6.62v1.221h-8.196" fill="#231f20"/><path id="i" d="M73.547,10.634V.266h7.494v1.221h-6.12v3.174h5.732v1.22h-5.732v3.532h6.361v1.221h-7.735" fill="#231f20"/><path id="j" d="M83.849,10.634h1.374V.266h-1.374v10.367Z" fill="#231f20"/><path id="k" d="M.449,16.536h84.822v-.936H.449v.936Z" fill="#231f20"/><path id="l" d="M.449,14.62h84.822v-.935H.449v.935Z" fill="#2baae2"/><path id="m" d="M1.537,21.406c0,.336.031.36.398.36.711,0,1.131-.352,1.131-.948,0-.566-.39-.887-1.093-.887-.383,0-.436.068-.436.52v.955ZM1.529,23.509c0,.351.023.443.161.565.107.092.314.153.535.153.619,0,1.009-.42,1.009-1.093,0-.711-.428-1.124-1.169-1.124-.497,0-.535.038-.535.504v.994ZM.681,20.512c0-.359-.046-.436-.252-.436h-.145c-.077.007-.122.007-.137.007-.085,0-.146-.053-.146-.13,0-.122.107-.168.405-.176.092,0,.183-.008.505-.031.115-.008.229-.016.336-.023.305-.031.55-.038.802-.038.749,0,1.093.076,1.414.321.267.206.413.489.413.811,0,.298-.138.565-.398.749l-.183.138c-.031.023-.046.038-.046.061,0,.015.031.046.084.076l.092.061c.466.267.719.681.719,1.155,0,.932-.734,1.467-2.018,1.467h-.23c-.107-.007-.198-.007-.245-.007l-.741-.023c-.077,0-.329.023-.597.053-.053.007-.115.015-.145.015-.092,0-.161-.053-.161-.137,0-.077.053-.115.198-.146q.474-.076.474-.734v-3.035" fill="#231f20"/><path id="n" d="M7.023,22.316c.252,0,.267-.008.267-.069,0-.023-.007-.054-.015-.084l-.038-.138c-.015-.046-.046-.137-.1-.283-.061-.183-.107-.305-.13-.359-.046-.122-.077-.206-.085-.229-.031-.092-.061-.138-.084-.138-.015,0-.038.038-.061.085l-.076.191-.138.329c-.076.199-.13.337-.161.405-.031.085-.053.138-.061.168-.007.023-.015.038-.015.046.008.069.023.077.283.077h.413ZM6.465,22.66c-.321,0-.306-.015-.466.405l-.268.681c-.061.16-.068.176-.068.245,0,.145.13.222.466.283.115.015.153.053.153.145,0,.084-.061.13-.176.13h-.061l-.306-.046c-.084-.007-.183-.015-.283-.015-.076,0-.176.008-.298.015-.092.008-.153.008-.191.016l-.206.031c-.046.007-.13.015-.161.015-.076,0-.13-.053-.13-.122,0-.107.015-.115.26-.191.283-.085.39-.176.505-.413l.092-.206.313-.688.298-.658.222-.481c.245-.535.444-.979.574-1.307.061-.145.115-.283.168-.42.084-.206.1-.23.115-.275.023-.053.046-.092.053-.122.023-.084.046-.115.084-.115.084,0,.107.016.122.069.015.031.046.107.084.222.038.107.069.199.168.474.031.107.068.215.099.321.138.413.314.933.535,1.552.137.397.252.726.336.947l.206.573c.146.405.214.466.634.582.069.023.1.053.1.115,0,.077-.061.13-.153.13-.046,0-.122-.008-.198-.016-.085-.015-.23-.023-.413-.031-.176-.007-.306-.015-.382-.015-.146,0-.459.008-.597.015-.1.008-.222.016-.245.016-.099,0-.153-.046-.153-.138,0-.076.038-.115.115-.122l.115-.023c.237-.031.329-.085.329-.183,0-.023-.008-.061-.016-.107-.007-.015-.023-.084-.046-.183-.038-.145-.092-.344-.168-.581l-.122-.382c-.046-.13-.076-.138-.405-.138h-.634" fill="#231f20"/><path id="o" d="M11.358,23.149l.015.466c.008.466.267.658.895.658.42,0,.894-.206,1.223-.535.382-.382.581-.932.581-1.59,0-1.399-.833-2.271-2.171-2.271-.497,0-.543.077-.543.872v2.4ZM10.509,20.557c0-.451-.031-.52-.198-.52-.038,0-.085.008-.138.016-.137.015-.237.03-.275.03-.122,0-.16-.03-.16-.115.007-.145.237-.229.696-.26l.818-.061c.176-.008.451-.016.757-.016,1.04,0,1.598.146,2.095.543.565.459.879,1.162.879,1.995,0,.742-.298,1.399-.841,1.828-.504.405-.925.535-1.781.535-.183,0-.405-.008-.642-.015-.482-.023-.535-.023-.703-.023-.222,0-.42.007-.535.015l-.252.023c-.038.008-.076.008-.122.008-.152,0-.206-.046-.206-.168,0-.099.046-.115.275-.145.267-.023.336-.13.336-.528v-3.142" fill="#231f20"/><path id="p" d="M16.319,20.71c0-.612-.038-.657-.474-.719-.206-.023-.245-.046-.245-.145,0-.084.046-.137.13-.137.068,0,.152.008.245.023.321.061,1.047.107,1.605.107.26,0,.528-.008.764-.031l.336-.023c.077-.007.13-.015.145-.015.046-.008.092-.016.115-.016.046,0,.091.038.091.077l-.007.191.007.245c.008.137.016.252.023.344.008.046.008.085.008.1,0,.092-.054.153-.122.153-.069,0-.092-.031-.107-.137-.076-.52-.336-.673-1.139-.673-.504,0-.527.023-.527.573v.848l.015.252c0,.161.053.183.436.183.558,0,.711-.084.795-.459.038-.183.084-.252.153-.245.061.008.084.046.084.13v.038c0,.062,0,.107-.008.138l-.023.344c-.008.092-.008.176-.008.26,0,.046,0,.1.008.145l.023.436c.008.168-.038.275-.122.275-.076,0-.115-.038-.13-.137l-.015-.183c-.038-.367-.168-.482-.581-.482h-.306c-.291,0-.321.046-.321.505v.703c0,.757.099.879.696.879.298,0,.496-.046.65-.161.176-.13.374-.405.474-.642.046-.107.077-.137.145-.137.061,0,.115.046.115.1,0,.015-.008.038-.016.069-.031.099-.077.267-.13.512-.046.198-.069.336-.084.39-.023.137-.053.168-.183.168-.031,0-.191-.007-.344-.015l-.42-.023-.413-.016c-.26-.015-.451-.023-.566-.023-.26,0-.742.023-.948.046l-.306.031c-.023.008-.084.008-.13.008-.137,0-.191-.031-.191-.115,0-.092.038-.145.123-.153l.214-.023c.405-.046.466-.176.466-1.009v-2.554" fill="#231f20"/><path id="q" d="M24.827,24.632c-.061.031-.077.038-.107.038s-.069-.03-.137-.099l-.245-.267-.971-1.078-.489-.497c-.062-.069-.153-.168-.268-.298-.161-.176-.329-.367-.489-.543-.206-.222-.237-.252-.329-.359-.26-.268-.161-.161-.528-.589-.198-.222-.229-.267-.245-.283-.015-.023-.031-.031-.046-.031-.023,0-.038.023-.038.076v2.668l.008.306c0,.245.038.344.168.444.107.084.168.099.581.145.145.015.191.038.191.107,0,.123-.061.161-.275.161h-.145l-.26-.008-.237-.015h-.382c-.069,0-.176.008-.329.023-.115.008-.267.023-.29.023-.122,0-.183-.038-.183-.13s.023-.107.222-.138c.367-.053.519-.153.535-.359l.008-.245.023-.42.061-2.653c.008-.405-.061-.489-.42-.528l-.23-.023c-.176-.023-.206-.038-.206-.13s.061-.146.153-.146c.015,0,.077,0,.168.008l.199.015c.145.008.237.016.252.016h.428l.443-.031c.146.031.183.061.329.26.015.015.137.16.329.374.046.046.107.115.183.207.122.153.252.306.375.458.13.153.176.207.26.299l1.001,1.109.39.443c.085.084.077.077.138.153.031.031.053.046.077.046.023,0,.038-.03.038-.083v-.062l.008-.612v-1.666c0-.482-.053-.612-.252-.635l-.336-.03-.153-.008c-.068-.016-.092-.046-.092-.115,0-.107.053-.138.222-.138.053,0,.138.008.222.008.168.016.282.023.329.023h.29c.062,0,.191-.007.383-.031.137-.015.275-.023.314-.023.092,0,.137.038.137.115,0,.084-.038.122-.137.138l-.199.031c-.267.038-.306.092-.336.451l-.015.153c-.008.061-.008.153-.008.252l-.061,2.79-.023.933" fill="#231f20"/><path id="r" d="M26.196,23.179c-.038,0-.069-.038-.069-.076,0-.046.023-.146.069-.252.023-.076.046-.13.053-.176.038-.115.069-.145.161-.145h1.193c.13,0,.168.023.168.107,0,.038-.008.053-.076.237-.008.03-.031.092-.061.191-.031.084-.069.115-.161.115h-1.277" fill="#231f20"/><path id="s" d="M32.594,19.808c.038,0,.092-.007.161-.015.114-.023.206-.031.29-.031.107,0,.183.054.183.13,0,.061-.038.099-.115.115l-.199.038c-.229.046-.321.137-.543.558l-.229.428c-.069.145-.153.306-.237.489-.053.13-.092.215-.115.245-.023.053-.038.1-.038.122s.016.061.038.107c.023.053.053.122.145.336.038.077.069.145.1.222.023.053.038.092.046.115l.314.635c.023.061.038.076.061.076.031,0,.053-.023.085-.076l.031-.069c.015-.023.046-.085.084-.176l.313-.696.535-1.2c.206-.474.336-.841.336-.963,0-.084-.046-.13-.153-.161-.26-.069-.275-.084-.283-.161-.008-.061.061-.122.13-.122.046,0,.107.008.176.016.146.023.291.038.367.038.214,0,.352-.007.489-.03.031-.008.054-.008.077-.008.084,0,.137.053.137.122,0,.084-.038.115-.176.137-.176.031-.267.107-.367.298l-.206.421c-.046.099-.13.29-.245.558-.107.245-.183.413-.222.504l-.565,1.247c-.077.176-.138.29-.161.344l-.1.191-.161.351c-.115.252-.198.421-.214.459-.076.198-.1.237-.161.237-.007,0-.023-.008-.038-.016-.031-.015-.038-.046-.252-.504l-.344-.757-.168-.374c-.069-.138-.092-.183-.115-.183-.031,0-.076.076-.26.428l-.198.39-.207.413c-.122.23-.252.444-.344.566-.023.046-.054.061-.092.061-.038,0-.053-.016-.099-.107l-.291-.573c-.084-.176-.176-.367-.267-.581l-.252-.558-.52-1.161-.283-.666c-.046-.115-.084-.191-.099-.222l-.23-.42c-.13-.237-.16-.26-.39-.306-.122-.023-.176-.069-.168-.153.008-.084.046-.122.138-.122.031,0,.084,0,.153.008.038.007.1.007.176.007.084.008.138.008.168.008h.306c.107,0,.183,0,.206-.008l.428-.038h.092c.092,0,.138.031.138.107,0,.115-.031.138-.207.153-.107.016-.161.069-.161.153,0,.046.008.1.023.145.084.222.191.482.329.773.053.122.1.221.13.29l.374.871.199.459.1.236c.221.497.26.566.314.566.038,0,.061-.038.176-.237.115-.214.183-.359.306-.612.076-.168.099-.245.099-.314,0-.046-.023-.107-.068-.198-.183-.36-.474-1.009-.581-1.292-.222-.55-.367-.734-.65-.803-.176-.038-.206-.069-.214-.183-.008-.061.046-.1.122-.1h.038l.16.016c.115.007.367.016.513.016h.298c.145,0,.29-.008.451-.023.069-.008.107-.008.161-.008.107,0,.153.023.161.1.015.1-.054.138-.299.168-.099.007-.145.038-.145.107,0,.038.038.161.092.298.016.046.046.123.092.23.077.191.138.321.168.39.084.191.137.321.153.351.015.031.023.046.038.046.015,0,.031-.015.038-.038.008-.016.031-.054.061-.115.016-.038.046-.092.077-.161l.099-.214c.1-.214.184-.428.268-.649.023-.046.031-.092.031-.13,0-.1-.046-.13-.237-.161l-.138-.016c-.084-.015-.115-.038-.115-.107,0-.092.046-.122.161-.122.107,0,.145,0,.351.031.1.008.176.015.229.015h.207" fill="#231f20"/><path id="t" d="M38.649,18.983c0,.237-.161.405-.39.405s-.398-.161-.398-.39.168-.398.398-.398c.214,0,.39.168.39.383ZM37.617,18.99c0,.23-.168.39-.405.39-.214,0-.375-.161-.375-.383,0-.229.161-.398.375-.398.229,0,.405.168.405.39ZM36.645,22.805c0,1.177.321,1.567,1.277,1.567.612,0,1.108-.229,1.315-.596.122-.23.176-.589.176-1.254v-1.919c0-.306-.1-.474-.298-.513l-.138-.023-.168-.046c-.1-.023-.145-.061-.145-.107,0-.069.099-.145.191-.145.031,0,.176.015.398.038.046.008.092.008.138.008h.137c.221,0,.314-.008.543-.031.061-.007.107-.007.161-.007.092,0,.145.038.145.107,0,.107-.015.115-.275.161-.306.053-.398.191-.398.619v1.995c-.007.895-.107,1.239-.443,1.552-.306.275-.864.443-1.491.443-.681,0-1.254-.183-1.583-.512-.29-.291-.39-.604-.39-1.2v-2.408c0-.42-.053-.481-.428-.489-.153-.008-.222-.054-.222-.153,0-.115.077-.138.39-.138.076,0,.145,0,.206.008l.26.031c.038,0,.107.008.207.008l.26.007c.061,0,.199-.007.39-.03.069-.008.138-.016.176-.016.237,0,.306.038.306.176,0,.069-.046.1-.153.107-.528.038-.543.053-.543.711v2.049" fill="#231f20"/><path id="u" d="M42.287,21.552c0,.413.023.443.29.443.803,0,1.185-.306,1.185-.948,0-.627-.39-1.017-1.024-1.017-.428,0-.451.023-.451.459v1.063ZM44.573,24.502l-.436.023c-.076-.023-.115-.092-.26-.398l-.085-.183c-.282-.612-.459-.94-.649-1.261-.268-.436-.298-.459-.581-.459-.191,0-.23.061-.23.374v.994c0,.535.023.589.306.642l.283.046c.1.023.145.061.145.138,0,.084-.053.13-.161.13-.038,0-.084,0-.122-.008l-.206-.023c-.122-.008-.245-.016-.359-.023l-.489-.016c-.046,0-.161.008-.321.023l-.351.031c-.069.008-.138.008-.168.008-.099,0-.145-.038-.145-.122,0-.077.046-.122.145-.138l.085-.007c.466-.069.512-.146.512-.764v-3.051l-.008-.122c-.008-.207-.053-.245-.336-.26-.359-.016-.39-.031-.39-.153,0-.1.046-.13.168-.13h.115c.023,0,.084.008.16.008.168.016.291.023.375.023h.413c.061.008.168,0,.306-.016.351-.023.573-.038.787-.038.565,0,.826.061,1.078.275.267.206.42.535.42.887,0,.443-.283.833-.757,1.04-.069.031-.1.053-.1.084,0,.008,0,.023.008.038l.031.061c.007.015.046.092.107.191.016.023.046.076.092.153.046.084.107.198.183.329.122.198.214.344.237.39.451.78.519.856.971.986l.183.053c.092.031.115.053.115.115,0,.115-.053.146-.245.146h-.061l-.245-.008-.52-.008" fill="#231f20"/><path id="v" d="M49.133,19.824c.451,0,.619-.053.696-.229.038-.085.061-.1.115-.1.084,0,.107.031.107.145,0,.038-.007.1-.015.176-.016.092-.023.168-.031.221v.168l-.016.206c0,.007,0,.061.008.145v.061c0,.161-.031.206-.137.206-.038,0-.061-.053-.13-.29-.115-.367-.298-.466-.872-.466h-.382c-.267,0-.329.053-.321.306l.008,3.31c0,.497.023.512.55.55.176.007.245.053.245.153,0,.092-.053.13-.168.13-.031,0-.13,0-.207-.008-.673-.019-1.207-.012-1.873.023-.138,0-.183-.038-.183-.137,0-.077.046-.115.145-.122l.176-.023c.42-.054.466-.123.466-.612v-3.219c0-.313-.038-.351-.383-.351h-.206c-.466,0-.742.13-.971.444l-.23.313c-.053.069-.068.085-.115.085-.046,0-.076-.023-.076-.069,0-.038.015-.085.061-.222.046-.13.092-.267.145-.474l.069-.268.076-.26c.023-.092.053-.122.122-.122.077,0,.084.008.107.077.038.122.16.213.298.236.061.008.191.016.398.016h2.522" fill="#231f20"/><path id="w" d="M54.286,19.824c.451,0,.619-.053.696-.229.038-.085.061-.1.115-.1.084,0,.107.031.107.145,0,.038-.008.1-.016.176-.015.092-.023.168-.031.221v.168l-.016.206c0,.007,0,.061.008.145v.061c0,.161-.031.206-.137.206-.038,0-.061-.053-.13-.29-.115-.367-.298-.466-.872-.466h-.382c-.267,0-.329.053-.321.306l.007,3.31c0,.497.023.512.551.55.175.007.244.053.244.153,0,.092-.053.13-.168.13-.031,0-.13,0-.207-.008-.673-.019-1.207-.012-1.873.023-.138,0-.183-.038-.183-.137,0-.077.046-.115.145-.122l.176-.023c.42-.054.466-.123.466-.612v-3.219c0-.313-.038-.351-.383-.351h-.206c-.466,0-.742.13-.971.444l-.23.313c-.053.069-.068.085-.115.085-.046,0-.076-.023-.076-.069,0-.038.015-.085.061-.222.046-.13.092-.267.145-.474l.069-.268.076-.26c.023-.092.053-.122.122-.122.077,0,.085.008.107.077.038.122.16.213.298.236.061.008.191.016.398.016h2.522" fill="#231f20"/><path id="x" d="M56.342,20.71c0-.612-.038-.657-.474-.719-.207-.023-.245-.046-.245-.145,0-.084.046-.137.13-.137.069,0,.153.008.245.023.321.061,1.047.107,1.606.107.26,0,.527-.008.764-.031l.336-.023c.076-.007.13-.015.145-.015.046-.008.092-.016.115-.016.046,0,.092.038.092.077l-.007.191.007.245c.008.137.016.252.023.344.007.046.007.085.007.1,0,.092-.053.153-.122.153s-.092-.031-.107-.137c-.077-.52-.336-.673-1.139-.673-.504,0-.528.023-.528.573v.848l.016.252c0,.161.053.183.436.183.558,0,.711-.084.794-.459.039-.183.085-.252.153-.245.061.008.084.046.084.13v.038c0,.062,0,.107-.008.138l-.023.344c-.008.092-.008.176-.008.26,0,.046,0,.1.008.145l.023.436c.008.168-.038.275-.122.275-.076,0-.115-.038-.13-.137l-.015-.183c-.038-.367-.168-.482-.581-.482h-.306c-.29,0-.321.046-.321.505v.703c0,.757.1.879.696.879.299,0,.498-.046.65-.161.176-.13.375-.405.474-.642.046-.107.077-.137.146-.137.061,0,.115.046.115.1,0,.015-.007.038-.015.069-.031.099-.077.267-.13.512-.046.198-.069.336-.084.39-.023.137-.054.168-.183.168-.031,0-.191-.007-.344-.015l-.42-.023-.413-.016c-.26-.015-.451-.023-.565-.023-.26,0-.742.023-.948.046l-.306.031c-.023.008-.083.008-.13.008-.138,0-.191-.031-.191-.115,0-.092.038-.145.122-.153l.214-.023c.405-.046.466-.176.466-1.009v-2.554" fill="#231f20"/><path id="y" d="M65.08,23.516c0,.574.061.65.612.749.122.023.168.053.168.13,0,.092-.069.13-.214.13-.038,0-.198-.007-.336-.007-.191-.008-.375-.016-.528-.016h-.237l-.428.016-.153.007c-.077.008-.13.008-.176.008-.13,0-.198-.046-.198-.153,0-.069.046-.107.161-.122.39-.076.466-.137.466-.398.026-.962.032-1.914-.008-2.874,0-.061-.023-.092-.061-.092s-.061.023-.085.084c-.007.016-.023.054-.046.1-.046.115-.092.214-.122.298l-.237.635-.191.474c-.115.306-.191.497-.198.52l-.123.299-.076.198c-.076.191-.145.382-.183.489-.092.267-.153.375-.214.375-.076,0-.115-.061-.298-.474l-.413-.933-.13-.298-.092-.214c-.031-.069-.085-.184-.146-.336-.115-.268-.206-.474-.283-.635-.061-.145-.107-.252-.122-.283-.038-.091-.069-.153-.076-.176l-.038-.084c-.031-.053-.053-.077-.076-.077-.031,0-.046.023-.046.062v.053l-.008.612v1.964c0,.489.092.635.436.696l.153.023.137.031c.092.015.122.038.122.107,0,.107-.069.152-.207.152-.076,0-.176-.007-.298-.023-.168-.023-.306-.038-.413-.038h-.214c-.069,0-.199.007-.367.03-.237.023-.314.031-.359.031-.092,0-.146-.046-.146-.13,0-.107.031-.13.26-.153.39-.046.428-.085.466-.489l.016-.245.061-1.163.13-1.827c.007-.046.007-.099.007-.13,0-.229-.115-.321-.481-.374-.252-.038-.329-.077-.329-.168,0-.084.046-.13.13-.13.023,0,.061,0,.084.007l.267.031c.115.008.344.023.474.023.053,0,.1,0,.137-.007.176-.008.298-.016.329-.016.1,0,.145.038.191.146.234.54.49,1.073.726,1.613.092.206.191.413.283.612.122.245.138.291.207.405l.122.237c.023.046.053.077.068.077.023,0,.046-.023.069-.077.046-.085.222-.513.329-.787l.283-.742.314-.826c.229-.604.267-.65.596-.65h.573l.558.008c.146,0,.206.038.206.122,0,.076-.046.122-.145.137l-.198.023c-.451.062-.459.069-.451.902l.007,2.53" fill="#231f20"/><path id="z" d="M67.832,21.406c0,.336.031.36.398.36.711,0,1.131-.352,1.131-.948,0-.566-.39-.887-1.093-.887-.383,0-.436.068-.436.52v.955ZM67.824,23.509c0,.351.023.443.161.565.107.092.314.153.535.153.619,0,1.009-.42,1.009-1.093,0-.711-.428-1.124-1.169-1.124-.497,0-.535.038-.535.504v.994ZM66.976,20.512c0-.359-.046-.436-.252-.436h-.146c-.076.007-.122.007-.137.007-.085,0-.146-.053-.146-.13,0-.122.107-.168.405-.176.092,0,.183-.008.505-.031.115-.008.229-.016.336-.023.306-.031.55-.038.803-.038.749,0,1.093.076,1.414.321.267.206.413.489.413.811,0,.298-.138.565-.398.749l-.183.138c-.031.023-.046.038-.046.061,0,.015.031.046.084.076l.092.061c.466.267.719.681.719,1.155,0,.932-.734,1.467-2.018,1.467h-.23c-.107-.007-.198-.007-.244-.007l-.742-.023c-.077,0-.329.023-.597.053-.053.007-.115.015-.145.015-.092,0-.161-.053-.161-.137,0-.077.053-.115.199-.146q.474-.076.474-.734v-3.035" fill="#231f20"/><path id="aa" d="M71.822,20.71c0-.612-.038-.657-.474-.719-.206-.023-.245-.046-.245-.145,0-.084.046-.137.13-.137.069,0,.153.008.245.023.321.061,1.047.107,1.605.107.26,0,.528-.008.764-.031l.336-.023c.077-.007.13-.015.146-.015.046-.008.092-.016.115-.016.046,0,.092.038.092.077l-.008.191.008.245c.008.137.016.252.023.344.008.046.008.085.008.1,0,.092-.054.153-.122.153-.069,0-.092-.031-.107-.137-.076-.52-.336-.673-1.139-.673-.505,0-.528.023-.528.573v.848l.015.252c0,.161.054.183.436.183.558,0,.711-.084.795-.459.038-.183.084-.252.153-.245.061.008.084.046.084.13v.038c0,.062,0,.107-.007.138l-.023.344c-.008.092-.008.176-.008.26,0,.046,0,.1.008.145l.023.436c.007.168-.038.275-.123.275-.076,0-.115-.038-.13-.137l-.015-.183c-.039-.367-.168-.482-.582-.482h-.306c-.291,0-.321.046-.321.505v.703c0,.757.099.879.696.879.298,0,.497-.046.65-.161.176-.13.375-.405.474-.642.046-.107.077-.137.146-.137.061,0,.115.046.115.1,0,.015-.008.038-.015.069-.031.099-.077.267-.131.512-.046.198-.068.336-.084.39-.023.137-.053.168-.183.168-.031,0-.191-.007-.344-.015l-.421-.023-.413-.016c-.26-.015-.451-.023-.566-.023-.26,0-.741.023-.948.046l-.306.031c-.023.008-.084.008-.13.008-.138,0-.191-.031-.191-.115,0-.092.038-.145.122-.153l.214-.023c.405-.046.466-.176.466-1.009v-2.554" fill="#231f20"/><path id="ab" d="M76.883,21.552c0,.413.023.443.29.443.803,0,1.185-.306,1.185-.948,0-.627-.39-1.017-1.025-1.017-.428,0-.451.023-.451.459v1.063ZM79.169,24.502l-.435.023c-.077-.023-.115-.092-.26-.398l-.084-.183c-.283-.612-.459-.94-.65-1.261-.267-.436-.298-.459-.581-.459-.191,0-.23.061-.23.374v.994c0,.535.023.589.306.642l.283.046c.099.023.145.061.145.138,0,.084-.053.13-.16.13-.038,0-.084,0-.123-.008l-.206-.023c-.122-.008-.245-.016-.359-.023l-.489-.016c-.046,0-.161.008-.321.023l-.352.031c-.068.008-.137.008-.168.008-.1,0-.145-.038-.145-.122,0-.077.046-.122.145-.138l.084-.007c.466-.069.513-.146.513-.764v-3.051l-.008-.122c-.007-.207-.053-.245-.336-.26-.359-.016-.39-.031-.39-.153,0-.1.046-.13.168-.13h.115c.023,0,.084.008.161.008.168.016.291.023.374.023h.413c.061.008.168,0,.306-.016.352-.023.573-.038.787-.038.566,0,.826.061,1.078.275.267.206.42.535.42.887,0,.443-.283.833-.757,1.04-.069.031-.1.053-.1.084,0,.008,0,.023.008.038l.031.061c.008.015.046.092.107.191.016.023.046.076.092.153.046.084.107.198.183.329.122.198.214.344.237.39.451.78.519.856.971.986l.183.053c.092.031.115.053.115.115,0,.115-.053.146-.244.146h-.062l-.245-.008-.52-.008" fill="#231f20"/><path id="ac" d="M85.448,22.255c.16,0,.214.03.206.122-.007.1-.038.123-.198.138-.459.046-.497.077-.52.466l-.015.351v.474c0,.39-.031.435-.39.597-.398.168-.856.252-1.407.252-1.636,0-2.76-.979-2.76-2.408,0-1.537,1.154-2.584,2.844-2.584.635,0,1.384.168,1.468.329.061.107.115.497.115.841,0,.085-.031.115-.115.115-.076,0-.1-.038-.198-.26-.267-.573-.582-.772-1.231-.772-1.139,0-1.904.917-1.904,2.263,0,1.216.856,2.209,1.911,2.209.428,0,.696-.137.779-.413.031-.107.061-.329.085-.604.015-.16.023-.267.023-.351,0-.375-.062-.459-.367-.466l-.321-.008c-.222-.007-.252-.023-.252-.13,0-.115.085-.16.298-.16h.115c.107,0,.176.007.222.007l.428.016c.107.007.199.007.283.007.122,0,.291-.007.497-.015.122-.008.214-.015.267-.015h.138" fill="#231f20"/><path d="M109.052,15.015c.088-.278.162-.56.22-.846.23.007.457-.044.662-.147,1.158-.592,2.282-1.545,2.282-1.545,0,0-1.123-.948-2.282-1.545-.205-.104-.434-.155-.664-.147-.06-.285-.134-.566-.223-.843.214-.133.397-.31.537-.519.45-.795.827-1.63,1.124-2.493,0,0-1.438-.28-2.738-.246-.238.023-.469.093-.68.205-.182-.202-.374-.395-.574-.578.119-.22.186-.465.197-.715.035-1.299-.281-2.738-.281-2.738,0,0-1.369.494-2.457,1.193-.198.124-.367.291-.494.488-.251-.084-.508-.155-.771-.214-.007-.24-.066-.476-.172-.691-.455-.796-.984-1.549-1.579-2.247,0,0-.987,1.086-1.579,2.247-.107.204-.166.43-.173.66-.29.059-.577.134-.86.224-.133-.211-.307-.392-.512-.533-.795-.451-1.629-.828-2.493-1.125-.148.906-.23,1.821-.246,2.738.03.226.107.443.225.638-.235.207-.458.427-.668.659-.209-.119-.441-.191-.681-.209-1.299-.035-2.738.246-2.738.246,0,0,.592,1.579,1.193,2.492.081.131.259.273.5.42-.094.281-.174.566-.237.856-.235-.005-.468.039-.685.129-1.158.632-2.247,1.579-2.247,1.649s1.086,1.018,2.247,1.65c.216.089.448.133.682.128.063.29.142.577.235.859-.192.102-.361.244-.494.417-.592.913-1.193,2.492-1.193,2.492,0,0,1.439.281,2.738.246.233-.016.459-.084.663-.197.211.236.434.459.67.669-.112.189-.185.398-.214.616.016.917.098,1.833.246,2.738.865-.297,1.7-.673,2.495-1.123.196-.134.364-.306.494-.504.289.093.584.17.881.231.01.218.068.432.171.625.592,1.159,1.579,2.247,1.579,2.247.595-.698,1.124-1.45,1.579-2.247.102-.205.161-.43.171-.659.271-.061.537-.135.799-.222.122.185.283.342.471.46,1.086.702,2.457,1.193,2.457,1.193,0,0,.316-1.44.281-2.738-.012-.242-.077-.478-.191-.691.204-.188.395-.385.583-.592.206.108.431.175.662.197,1.299.036,2.738-.246,2.738-.246-.297-.863-.673-1.698-1.122-2.492-.139-.209-.321-.387-.535-.519Z" fill="url(#ad)" fill-rule="evenodd"/><path d="M92.832,10.64c-.225,0-.447.045-.653.133-1.064.58-2.28,1.57-2.28,1.704s1.216,1.123,2.278,1.703c.211.089.437.133.665.131v.006c.057.258.128.514.21.767h0c-.185.101-.346.24-.472.41-.592.906-1.192,2.486-1.198,2.502l-.026.067.07.014c.015,0,1.461.282,2.751.247.223-.012.441-.072.639-.175l.006-.006c.194.213.398.417.612.61v.007c-.105.182-.172.384-.197.592.015.924.097,1.845.245,2.757l.012.069.067-.022c.013,0,1.388-.466,2.504-1.129.192-.129.356-.294.486-.486h.007c.264.083.531.153.79.208v.012c.016.207.075.409.173.592.592,1.15,1.579,2.247,1.587,2.257l.045.051.045-.051c.598-.702,1.129-1.457,1.587-2.257.101-.199.16-.417.174-.641h.007c.24-.055.479-.121.711-.197l.006.006c.121.175.277.323.458.435,1.079.696,2.454,1.193,2.468,1.198l.064.024.015-.067c0-.015.317-1.462.282-2.753-.01-.237-.072-.469-.18-.68h.009c.178-.165.351-.343.518-.527l.009.006c.198.098.413.159.634.179,1.292.035,2.739-.244,2.753-.247l.068-.014-.022-.065c0-.014-.466-1.388-1.128-2.504-.133-.204-.308-.378-.512-.51v-.009c.079-.254.144-.507.197-.756h.009c.221.002.439-.051.635-.154,1.148-.592,2.278-1.541,2.29-1.551l.055-.046-.055-.046c-.012-.01-1.142-.959-2.294-1.553-.199-.104-.42-.156-.644-.153v-.006c-.053-.248-.119-.501-.197-.753h0c.205-.132.38-.306.513-.51.662-1.116,1.124-2.491,1.129-2.504l.022-.066-.068-.013c-.014,0-1.461-.281-2.751-.247-.226.019-.447.08-.65.181h-.006v-.005c-.223-.245-.403-.412-.511-.513h0c.113-.216.176-.454.187-.698.035-1.29-.279-2.737-.282-2.752l-.015-.067-.064.023c-.014,0-1.389.502-2.468,1.2-.192.12-.355.279-.481.467h-.007c-.226-.073-.457-.136-.691-.19h0c-.012-.234-.072-.462-.177-.671-.458-.8-.989-1.556-1.587-2.257l-.045-.051-.045.05c-.01.011-.996,1.107-1.589,2.259-.105.197-.166.415-.178.639h-.006c-.256.053-.516.122-.773.202l-.003-.005c-.132-.201-.303-.373-.501-.508-1.117-.663-2.492-1.125-2.506-1.13l-.067-.023-.012.07c-.148.909-.23,1.828-.247,2.749.028.219.099.429.211.619l-.008.008c-.212.19-.413.389-.598.592h-.009c-.203-.111-.428-.176-.658-.191-1.289-.035-2.736.244-2.75.247l-.07.014.026.067c.006.016.606,1.596,1.199,2.505.128.169.292.309.479.41v.006c-.083.251-.153.508-.211.764h-.012ZM109.531,15.562c.655,1.105,1.113,2.468,1.117,2.48l.045-.078c-.014,0-1.447.279-2.724.245-.223-.022-.439-.086-.638-.191l-.041-.02-.031.034c-.186.207-.38.405-.579.592l-.034.031.02.04c.11.206.174.434.186.667.035,1.277-.276,2.71-.279,2.725l.079-.044c-.014,0-1.375-.494-2.445-1.184-.181-.114-.336-.266-.454-.444l-.026-.037-.042.014c-.259.086-.525.16-.79.22l-.043.01v.044c-.009.221-.065.437-.163.635-.622,1.139-1.563,2.225-1.571,2.237h.09c-.01-.011-.987-1.096-1.57-2.234-.098-.186-.154-.392-.164-.602v-.045l-.044-.009c-.295-.061-.587-.137-.875-.229l-.042-.014-.026.038c-.128.191-.293.354-.485.481-.791.447-1.621.821-2.48,1.117l.079.047c-.147-.902-.229-1.814-.245-2.728.029-.208.099-.407.206-.587l.023-.042-.036-.032c-.235-.21-.459-.432-.669-.667l-.032-.035-.041.021c-.195.112-.412.179-.636.197-1.278.029-2.711-.253-2.726-.253l.045.081c.006-.016.601-1.579,1.184-2.48.071-.115.231-.249.477-.395l.041-.025-.015-.045c-.093-.28-.17-.565-.233-.853l-.01-.046h-.047c-.225.005-.448-.037-.656-.122-1.133-.618-2.162-1.515-2.218-1.616.002.006.002.013,0,.02.002.006.002.013,0,.02.055-.099,1.086-.998,2.22-1.617.209-.087.433-.13.659-.126h.047l.01-.046c.063-.287.141-.57.235-.849l.016-.046-.041-.025c-.248-.149-.409-.283-.48-.395-.592-.898-1.184-2.468-1.184-2.482l-.045.081c.015,0,1.448-.279,2.725-.245.23.016.454.084.655.197l.04.021.032-.035c.209-.23.43-.449.663-.654l.036-.033-.023-.042c-.114-.187-.188-.395-.218-.612.016-.912.098-1.823.245-2.723l-.079.047c.014,0,1.376.462,2.48,1.118.197.136.365.311.494.514l.026.038.042-.014c.28-.089.565-.163.854-.222l.044-.01v-.045c.006-.221.063-.438.165-.634.587-1.14,1.563-2.225,1.571-2.237h-.09c.009.011.951,1.097,1.571,2.236.102.209.159.438.165.67v.045l.044.01c.261.058.52.13.771.213l.042.014.026-.038c.12-.189.281-.35.471-.47,1.073-.691,2.434-1.184,2.448-1.189l-.079-.043c0,.015.314,1.448.279,2.723-.012.242-.08.479-.197.691l-.021.04.035.031c.197.182.395.374.571.574l.031.035.041-.021c.204-.108.427-.175.656-.197,1.275-.035,2.709.242,2.722.245l-.045-.079c0,.014-.462,1.376-1.117,2.48-.135.202-.311.373-.518.5l-.038.026.014.043c.088.275.162.554.221.836l.01.047h.048c.22-.008.438.039.635.139,1.142.592,2.262,1.53,2.27,1.539v-.091c-.011.009-1.132.95-2.27,1.537-.196.1-.415.149-.636.14h-.037l-.01.047c-.058.284-.132.564-.219.84l-.014.043.038.026c.203.127.376.295.509.494h0Z" fill="#1b181c" fill-rule="evenodd"/><path d="M98.28,13.847s-6.635,3.089-7.161,3.931c-.702,1.086-.702.842.494.807,1.018-.035,6.915-4.353,6.881-4.353l.843.842s-4.213,5.932-4.244,6.986c-.035,1.263-.14,1.123.843.456.842-.562,3.792-7.232,3.792-7.232l1.158.316s-.633,7.268-.176,8.18c.527,1.159.386,1.194.949,0,.42-.948-.351-8.18-.351-8.18l1.159-.28s3.09,6.6,3.931,7.161c1.123.737.878.773.807-.494-.036-1.019-4.353-6.916-4.353-6.916l.842-.807s5.933,4.213,6.986,4.213c1.475.07,1.193.28.494-.807-.592-.878-7.232-3.791-7.267-3.791l.35-1.159s7.232.632,8.145.176c1.229-.592,1.264-.35,0-.948-.912-.421-8.145.316-8.18.316l-.281-1.159c0,.035,6.6-3.054,7.161-3.897.843-1.229.737-.987-.526-.842-1.053.105-6.845,4.388-6.881,4.353l-.807-.807s4.146-5.932,4.244-6.986c.141-1.439.211-1.263-.878-.527-.883.601-3.762,7.274-3.762,7.274l-1.162-.319s.667-7.267.246-8.18c-.563-1.229-.421-1.229-1.018.036-.421.948.35,8.144.35,8.144l-1.158.319s-3.051-6.602-3.93-7.164c-1.193-.772-.878-.842-.808.452.036,1.053,4.353,6.915,4.353,6.915l-.843.842s-5.931-4.204-6.984-4.243c-1.193-.035-1.263-.35-.456.843.562.878,7.197,3.791,7.197,3.791l-.316,1.193s-7.232-.701-8.182-.245c-1.053.526-1.159.387,0,.948.948.456,8.18-.246,8.18-.246l.318,1.089Z" fill="url(#ae)" fill-rule="evenodd"/><path d="M98.254,13.791c-.271.124-6.657,3.106-7.189,3.954l-.225.342c-.224.336-.296.449-.247.539s.169.074.459.051c.146-.012.329-.026.557-.033.436-.015,1.732-.752,3.85-2.191.857-.58,1.631-1.13,2.129-1.488.958-.691.958-.698.957-.736v-.06h-.201l.104.104.842.842-.007-.078c-.172.243-4.223,5.96-4.258,7.019l-.011.348c-.017.438-.023.602.079.656s.215-.033.501-.239c.099-.071.222-.16.368-.259.847-.566,3.693-6.984,3.813-7.258l-.071.034,1.158.316-.044-.064c-.026.296-.629,7.294-.17,8.212l.169.382c.169.388.232.533.347.534s.191-.158.385-.58l.156-.336c.423-.953-.314-7.916-.346-8.211l-.045.065,1.159-.28-.07-.033c.126.269,3.106,6.622,3.953,7.186.162.106.296.197.404.271.315.216.421.289.507.238s.07-.172.039-.469c-.016-.154-.036-.344-.049-.585-.036-1.024-4.188-6.707-4.365-6.948l-.007.08.843-.807-.077.006c.243.173,5.961,4.224,7.021,4.224.269.013.485.032.642.044.321.027.429.036.471-.04s-.02-.149-.162-.333c-.099-.132-.244-.315-.41-.572-.602-.888-7.27-3.82-7.317-3.82l.058.078.35-1.159-.063.042c.296.026,7.259.629,8.177.17.226-.11.408-.19.556-.254.296-.131.413-.181.413-.276s-.111-.146-.441-.289c-.14-.061-.316-.137-.528-.238-.776-.358-5.914.09-8.087.296l-.121.012.062.046-.281-1.159-.119.015v.048l.044.014c.025.008.045.014,1.103-.489.445-.211,1.339-.642,2.33-1.144,1.566-.796,3.497-1.839,3.796-2.289l.123-.18c.36-.523.483-.7.413-.81s-.22-.073-.571-.021c-.148.023-.333.049-.55.074-.82.082-4.363,2.581-6.065,3.782-.439.31-.79.555-.828.574.022-.008.046-.003.062.014l-.807-.809.007.078c.17-.243,4.153-5.958,4.258-7.015l.032-.316c.058-.564.078-.754-.034-.819s-.24.038-.57.272c-.114.082-.245.174-.401.279-.881.603-3.659,7.027-3.777,7.296l.071-.035-1.158-.316.044.064c.028-.296.662-7.293.24-8.21l-.159-.36c-.197-.433-.265-.592-.388-.592s-.197.166-.407.613l-.174.374c-.423.954.314,7.883.345,8.177l.044-.065-1.158.316.071.033c-.125-.267-3.073-6.622-3.955-7.187-.225-.146-.395-.268-.526-.357-.253-.178-.339-.238-.413-.197s-.059.135-.028.381c.022.163.049.385.065.681.036,1.058,4.188,6.712,4.365,6.948l.007-.079-.843.843.078-.007c-.243-.169-5.96-4.22-7.019-4.254-.258-.007-.466-.029-.617-.043-.257-.026-.374-.038-.421.043s.027.206.296.592l.239.348c.565.881,6.951,3.694,7.222,3.813l-.034-.071-.316,1.194.064-.045c-.296-.029-7.26-.699-8.211-.24-.155.077-.285.138-.401.197-.333.144-.469.208-.469.321s.166.197.61.413l.254.122c.953.459,7.916-.211,8.212-.24l-.063-.043.315,1.086.033-.07ZM97.958,12.698h0c-.072.007-7.226.691-8.148.251l-.255-.118c-.284-.136-.53-.254-.541-.304h0c.01-.041.205-.133.395-.221.111-.051.247-.115.403-.197.921-.443,8.074.245,8.147.253h.051l.013-.05.316-1.194.013-.05-.047-.021c-.066-.029-6.624-2.916-7.17-3.769l-.24-.35c-.163-.234-.29-.42-.285-.465,0,.004-.003.007-.006.01.103-.011.208-.007.31.011.153.016.364.037.626.044,1.023.035,6.894,4.195,6.953,4.236l.041.03.037-.037.842-.842.038-.037-.031-.042c-.043-.058-4.308-5.859-4.343-6.882-.016-.301-.045-.526-.066-.691-.018-.09-.025-.181-.021-.272-.005.008-.013.013-.023.014.106.05.205.112.296.185.127.09.303.213.53.361.853.546,3.879,7.07,3.91,7.136l.022.046.049-.014,1.159-.316.049-.014-.005-.051c-.008-.072-.766-7.191-.355-8.114l.174-.374c.126-.274.245-.534.296-.542h0c.049.009.161.26.278.525l.159.366c.41.888-.244,8.076-.251,8.148v.05l.049.014,1.158.316.051.014.021-.048c.029-.066,2.881-6.661,3.734-7.241.158-.107.296-.203.403-.281.197-.138.395-.281.439-.266h0c.042.036.011.344-.026.702l-.033.317c-.099,1.026-4.196,6.898-4.237,6.957l-.029.041.036.037.807.807c.041.041.046.038.312-.146l.61-.428c1.562-1.102,5.219-3.682,6.008-3.761.22-.025.406-.052.555-.074.205-.031.418-.062.45-.035h0c.018.057-.171.332-.41.678l-.124.181c-.526.79-6.789,3.772-7.125,3.872l.049.01.024.048-.119.015.281,1.158.011.046h.048l.13-.012c4.506-.433,7.502-.549,8.024-.31.214.099.39.178.531.239.131.046.256.108.37.187-.002-.005-.002-.011,0-.017-.106.073-.221.131-.342.174-.148.064-.333.145-.561.256-.888.444-8.041-.176-8.113-.182h-.049l-.014.046-.35,1.159-.024.078h.072-.017c.06.021,6.655,2.917,7.234,3.768.167.26.31.444.414.578.058.065.108.137.149.214,0-.009.004-.018.012-.024-.121.009-.243.005-.363-.013-.158-.013-.375-.032-.649-.044-1.025,0-6.895-4.159-6.954-4.202l-.04-.029-.037.035-.842.807-.038.037.031.043c.043.059,4.308,5.894,4.343,6.882.014.246.034.437.049.592.021.118.026.237.014.356.003-.003.007-.006.011-.007-.04,0-.197-.105-.383-.231-.109-.074-.243-.167-.405-.273-.818-.545-3.879-7.07-3.911-7.136l-.021-.045-.048.012-1.158.281-.051.013.006.053c.008.072.766,7.226.356,8.148l-.155.336c-.122.267-.227.494-.275.51h0c-.044-.014-.139-.232-.24-.462l-.17-.385c-.444-.888.175-8.076.181-8.149v-.05l-.048-.013-1.159-.316-.05-.014-.021.047c-.03.066-2.951,6.66-3.77,7.206-.147.099-.271.19-.371.261-.172.123-.335.24-.374.23h0c-.036-.032-.027-.269-.016-.547l.012-.349c.035-1.023,4.195-6.894,4.236-6.953l.03-.041-.036-.037-.843-.843-.042.099-.056-.038.014-.064c-.046.042-5.846,4.301-6.84,4.335-.23.007-.415.021-.562.033-.116.017-.233.017-.348,0,0,.002,0,.005,0,.007-.006-.042.109-.214.241-.414l.226-.343c.512-.818,7.07-3.878,7.136-3.91l.047-.022-.015-.049-.316-1.086-.014-.048-.042.006Z" fill="#1b181c" fill-rule="evenodd"/><path d="M100.746,7.231l.38-.53.347.529h.367l-.059.049c-.271.272-.235.888.278.918.283.011.521-.21.531-.493.005-.124-.036-.245-.114-.341l-.064-.083.343.022.35-.474.338.561.404.061-.076.07c-.31.189-.304.822.178.918s.744-.432.514-.777l-.065-.099.28.064.321-.377s-.359,6.574-.43,7.489c-.078,1.008-.743,3.066-3.446,3.066s-3.37-2.056-3.446-3.064c-.071-.915-.494-7.494-.494-7.494l.333.39.28-.064-.066.099c-.23.344.03.872.515.776.486-.096.487-.728.178-.918l-.058-.072.377-.065.276-.556.435.466.326-.023-.065.083c-.178.22-.144.543.076.72.096.078.218.118.341.114.513-.03.549-.646.278-.918l-.04-.05h.374v.003Z" fill="url(#af)" isolation="isolate"/><path d="M101.133,6.8l-.355.494s-.287,0-.296.006c.321.321.132.936-.343.963-.308.014-.568-.225-.582-.532-.006-.136.038-.269.123-.375l-.244.017-.412-.437-.258.514s-.321.061-.327.055c.338.204.343.896-.197,1.002s-.813-.476-.565-.847l-.197.044-.236-.274c.089,1.388.41,6.392.481,7.304.078.994.72,2.996,3.397,2.996s3.319-2.002,3.397-2.996c.071-.913.337-5.922.424-7.312l-.225.275-.197-.044c.249.37-.028.952-.565.847s-.531-.797-.197-1.002c-.006.006-.335-.047-.335-.047l-.314-.518-.326.437-.267-.017c.193.24.156.591-.084.784-.106.085-.239.129-.375.123-.476-.028-.663-.642-.343-.963-.006-.006-.267,0-.267,0l-.326-.494.008-.003ZM101.133,17.855c-2.778,0-3.447-2.092-3.528-3.116-.082-1.06-.5-7.634-.5-7.634l.432.456.41-.091c-.494.521-.068,1.01.258.936.462-.105.488-.754-.055-.969l.535-.099.321-.607.478.507.468-.034c-.505.467-.189.975.197.945s.58-.642.025-.96l.531-.018.424-.554.395.554.505.014c-.555.32-.365.931.025.96s.707-.478.197-.945l.483.034.395-.515.395.61.536.099c-.543.215-.518.865-.055.969.326.074.754-.415.258-.936l.411.091.431-.456s-.362,6.581-.446,7.644c-.08,1.025-.749,3.116-3.527,3.116h.003Z" fill="#1b181c"/><path d="M101.133,7.37l-.324,1.038s-1.086.05-1.304.086l-.039.007-.379-.98-.218,1.056c-.43.065-.856.153-1.276.263l-.376-.79v-.232l.43.903c.306-.083.821-.18,1.139-.231l.274-1.321.47,1.219c.253-.032,1.021-.072,1.191-.081l.412-1.25.348,1.251c.171.009.939.05,1.191.081l.434-1.209.34,1.313c.318.052.801.13,1.121.206l.457-1.096-.042.334-.34.888c-.426-.109-.859-.191-1.296-.245l-.261-1.081-.325.994c-.219-.036-1.364-.082-1.364-.082l-.265-1.042Z" fill="#1b181c"/><path d="M97.34,9.137c-.006.001-.012.001-.018,0v-.099c2.208-.711,5.397-.715,7.605,0l-.007.099c-2.192-.716-5.38-.714-7.577,0h-.004Z" fill="#1b181c"/><path d="M97.346,9.416h-.016l-.01-.133c2.203-.707,5.376-.712,7.584-.006l-.008.135c-2.187-.71-5.363-.707-7.551,0v.004Z" fill="#1b181c"/><path d="M99.665,14.821c0,.027,0,.064.015.071s.076-.024.107-.099c-.042-.003-.084.005-.121.024v.004ZM99.394,15.117c-.022-.09-.038-.181-.049-.272.007-.027.296-.17.585-.17.065-.003.13.008.19.034.072-.028.148-.044.225-.047-.009.099-.055.126-.055.126.104.057.219.382.235.57.144.067.557.313,1.323-.018.508-.218.901.087.997-.204.022-.067.022-.155-.113-.242-.158-.099-.444-.059-.869.139-.336.157-.641.255-.808.256-.203,0-.369-.165-.369-.368.009-.222.326-.341.344-.314.033.048-.222.218-.099.416s.311.104.409.075c.395-.119,1.029-.563,1.457-.338.372.197.197.624.015.645.112.209.185.436.216.671l.323.106-.015.504h-.573s-.073-.197.28-.239c-.244-.095-.469-.235-.662-.413-.139.199-.245.419-.314.651h-.691s-.085-.229.423-.253c-.001-.184.007-.368.025-.552-.316.013-.542.481-1.257.487-.006.028-.022.075-.022.075-.272.104-.553.185-.838.243h-.844c0-.048-.048-.246.463-.208.114-.105.238-.198.371-.276-.177-.089-.6-.361-.686-.477,0-.132-.08-.218-.312-.109-.022-.283.354-.395.507-.113.142.006.283.025.42.058.009-.065.019-.15.028-.178-.031.028-.14.11-.177.078-.046-.052-.069-.121-.061-.191.046.081.11.054.128-.035-.124.013-.561.099-.429-.382.048.177.099.347.426.282-.009-.043-.099-.156-.152-.02h.004Z" fill="#1b181c"/><path d="M99.27,12.15c0,.032,0,.076.019.083s.099-.028.136-.112c-.053-.004-.107.006-.156.028h0ZM98.944,12.499c-.027-.104-.048-.21-.062-.317.008-.032.373-.197.746-.197.081.005.162.018.241.039.092-.033.189-.052.287-.055-.012.118-.07.146-.07.146.132.067.279.444.296.662.241.099.709.364,1.686-.02.647-.255,1.148.099,1.269-.238.029-.078.029-.18-.143-.281-.197-.118-.566-.068-1.107.163-.427.183-.815.296-1.029.296-.241,0-.481-.186-.47-.428.012-.258.416-.395.439-.365.041.056-.283.254-.12.484s.395.121.521.087c.508-.138,1.31-.654,1.857-.395.474.228.249.725.02.749.132.171.26.618.276.781l.411.122-.019.586h-.737s-.093-.234.357-.278c-.307-.108-.593-.27-.843-.479-.245.273-.4.757-.4.757h-.874s-.109-.266.54-.296c-.002-.214.008-.428.031-.642-.353.016-.711.559-1.6.567-.008.032-.028.087-.028.087-.347.122-.702.219-1.063.288h-1.086c0-.055-.062-.285.592-.242.146-.123.305-.231.474-.321-.225-.099-.765-.42-.874-.555,0-.155-.113-.254-.408-.127-.028-.329.462-.456.656-.13.18.006.36.029.536.067.008-.069.02-.138.036-.205-.039.032-.179.126-.226.091-.058-.059-.086-.14-.077-.222.058.099.139.063.163-.039-.159.016-.715.118-.547-.444.062.206.119.404.544.329-.012-.051-.124-.183-.197-.024h0Z" fill="#1b181c"/><path d="M98.892,9.806c-.028-.105-.049-.211-.063-.319.008-.033.382-.197.765-.197.083.005.166.019.247.04.095-.033.195-.052.296-.055-.012.119-.072.147-.072.147.135.068.287.446.307.665.247.099.727.365,1.728-.02.664-.256,1.178.099,1.303-.239.029-.078.03-.181-.147-.283-.207-.119-.579-.069-1.136.164-.437.183-.836.296-1.055.296-.247,0-.494-.187-.482-.43.012-.259.426-.395.45-.366.042.056-.291.256-.123.486s.407.121.534.088c.522-.139,1.343-.657,1.904-.395.487.228.256.728.02.752.135.172.267.622.283.79l.422.123-.02.592h-.757s-.099-.235.366-.279c-.314-.108-.607-.272-.865-.482-.251.274-.41.761-.41.761h-.899s-.112-.267.554-.296c-.002-.216.009-.431.032-.646-.362.016-.728.562-1.641.57-.008.032-.028.088-.028.088-.358.121-.724.216-1.096.283h-1.107c0-.056-.064-.287.605-.243.151-.124.314-.232.487-.323-.231-.099-.785-.422-.896-.558,0-.155-.115-.255-.419-.127-.028-.331.474-.458.673-.131.185.007.369.029.55.068.008-.07.02-.139.036-.207-.039.032-.184.127-.231.092-.059-.058-.088-.141-.079-.223.059.099.143.064.167-.039-.163.016-.733.119-.561-.446.063.207.123.407.558.331-.012-.051-.128-.184-.197-.024l-.003-.007ZM99.238,9.455c0,.033,0,.076.02.084s.099-.028.139-.112c-.055-.004-.11.006-.16.028h0Z" fill="#1b181c"/></g></symbol></defs><use width="113.386" height="24.719" xlink:href="#a"/></svg>