<?xml version="1.0" encoding="utf-8"?>
<!-- Generator: Adobe Illustrator 14.0.0, SVG Export Plug-In  -->
<!DOCTYPE svg PUBLIC "-//W3C//DTD SVG 1.1//EN" "http://www.w3.org/Graphics/SVG/1.1/DTD/svg11.dtd" [
	<!ENTITY ns_flows "http://ns.adobe.com/Flows/1.0/">
]>
<svg version="1.1"
	 xmlns="http://www.w3.org/2000/svg" xmlns:xlink="http://www.w3.org/1999/xlink" xmlns:a="http://ns.adobe.com/AdobeSVGViewerExtensions/3.0/"
	 x="0px" y="0px" width="487px" height="512px" viewBox="0 0 487 512" enable-background="new 0 0 487 512" xml:space="preserve">
<defs>
</defs>
<path id="Schildkontur_1_" d="M243.5,512C109.2,512,0,406.6,0,277V0h487v277C487,406.6,377.8,512,243.5,512L243.5,512z"/>
<path id="Schildfarbe_1_" fill="#FFCB00" d="M6.4,6.4V277l0,0c0,126.2,106.1,228.5,237.1,228.5c130.9,0,237.1-102.3,237.1-228.5V6.4
	H6.4z"/>
<path fill-rule="evenodd" clip-rule="evenodd" fill="#1A171B" d="M406.7,115.5c25.9,2.9,38.6-8.3,38-33.6c-20.7,9.6-49.7,6.5-87-9.5
	c-1.2-3,11.7-3.7,38.7-2.1c39.7,0.2,55.2-13.9,46.8-42.1c-2.5,11.3-29.3,15.1-80.5,11.4c6.5-0.7,9-6.1,7.4-16.3
	c-5.1,9-18.9,12.3-41.4,9.9c-16-1.7-26.9,5.7-32.6,21.9c-4.1,13-0.5,24.1,11,33.3c6.6,2.7,9.4,8.5,8.5,17.3l0.4-2
	c-3,36.3-38.3,41-46.3,12.4c0.1-4.4,0.9-9.5,2.3-15.4l0.4-1.7l1,1.4c6.1,8.4,11.6,12.8,16.7,13.1c4.1,0.3,7.9-2.1,11.5-7
	c-1.9,1.3-3.7,2.1-5.3,2.6c-2.9,0.9-5.5,0.6-7.6-0.8c-2.1-1.4-3.8-3.8-5.2-7.3c-2.1-5.6-3.2-13.9-3.4-25.1l0-1.2
	c4.3,9.7,11.4,11.2,13.6,0.3C283,82,279.6,56,278.3,51.4l-0.4-1.4l1.4,0.4c0.7,0.2,1.3,0.4,1.9,0.5c2.6,0.5,4.8,0.2,6.4-0.8
	c1.5-0.9,2.6-2.5,3.3-4.7c-2,1.5-3.8,2.3-5.6,2.4c-1.8,0.1-3.5-0.7-5-2.2c-0.3-0.3-0.6-0.6-0.9-1l-0.1-0.1l0-0.1
	c-1.4-4.1-3.6-7.5-6.8-10.1v0c-0.6-0.5-1.2-1-1.9-1.4c-0.7-0.4-1.4-0.9-2.1-1.3v0l0,0l-2.9-1.5l3.3,0c4.1,0,7.1-1,9-3
	c1.3-1.4,2.1-3.3,2.4-5.7c-1.5,1.7-4,2.6-7.2,2.9c-0.9,0.1-1.9,0.1-3,0c-1.1,0-2.2-0.1-3.4-0.3l0,0l-0.1,0l-0.1,0
	c-11.5-3.6-20.2-4.8-25.9-3.6c-2.8,0.6-4.9,1.7-6.2,3.3c-0.3,0.4-0.6,0.7-0.8,1.2v0c-3.8,0.9-11.4,2-12.1,6.9
	c-17,3.6-14.5,11.1-7,22.5c-6.5-10,17-13.7,25.9-1.3c-2.1,0.5-32.6,12-34.2,3.9c-2.6-12.6-2.6-14.1-7.2,2.7
	c-1.2,4.5,1.1,7.8,7.7,8.8c7.7,1.2,6.9-1.5,34.5-8.8l-1.8,5.2l-0.2,0l0,0.1c-2.1-0.1-13.4,2-14.8,4.8l-5.4,4.3
	c9.3-1.7,13.5-3.9,22.5-0.4c4.4,1.9,5.7,4.3,7.5,8.6c-0.7,1.9-1.8,3.3-3.1,4c-0.6,0.3-1.2,0.6-1.9,0.7c-1.3,0.2-2.7,0-4.3-0.6
	c-1.2-0.4-2.3-0.7-3.3-0.9c-1-0.2-2-0.4-2.9-0.4c-4.6-0.4-7.7,1-9.5,4.2l-0.1,0.1c-2.3,2.6-4.7,4.1-7.2,4.5c-1.5,0.2-3.1,0-4.6-0.6
	c1.2,1.3,2.5,2.1,3.9,2.4c2.2,0.4,4.8-0.4,7.8-2.6l0.1-0.1l0.1,0c2.6-1.1,4.9-1.8,6.9-2.1c2.2-0.3,4-0.1,5.4,0.5
	c1.5,0.7,2.6,1.9,3.3,3.5c0.3,0.8,0.6,1.7,0.7,2.7l0,0.3l-0.1,0.2l0,0c-0.4,0.7-0.8,1.4-1.3,1.9c-0.5,0.6-1,1.1-1.6,1.6
	c-3,2.3-7.2,2.8-12.7,1.7l0,0c-0.9-0.2-1.7-0.2-2.5-0.2c-0.8,0-1.6,0.1-2.4,0.3c-4,1-7.4,4.3-10.1,10l0,0.1l-0.1,0.1
	c-2.6,3-5.1,4.4-7.5,4.2c-1.7-0.1-3.2-1-4.7-2.6c0.1,0.6,0.3,1.1,0.4,1.6c1.1,3,3.3,4.4,6.6,4.4h0c0.1,0,0.2,0,0.4,0
	c0.6,0,1.2-0.1,1.7-0.3c0.6-0.1,1.1-0.3,1.6-0.6c2.7-1.3,5.1-4.2,7.2-8.5l0.1-0.2l0.2-0.1c2-1.3,3.6-2,5.1-2.1
	c0.9-0.1,1.7,0,2.4,0.3v0c0.7,0.3,1.3,0.8,1.7,1.5v0c0.6,0.9,0.9,2.1,1.1,3.6l0,0.1l0,0.1c0.2,30.9-50.9,33.7-54.3-8.7l0-0.5
	c-0.9-8.8,1.9-14.5,8.5-17.3c11.4-9.2,15.1-20.3,11-33.3c-5.7-16.3-16.5-23.6-32.6-21.9c-22.5,2.4-36.3-0.9-41.4-9.9
	c-1.5,10.1,0.9,15.6,7.4,16.3c-51.2,3.7-78-0.1-80.5-11.4C35.4,56.5,51,70.5,90.7,70.3c26.9-1.6,39.8-0.9,38.7,2.1
	c-37.3,16-66.4,19.1-87,9.5c-0.6,25.2,12,36.4,38,33.6c19.5-1.7,49.4-17.4,45.6-6c-2.6,15.4-71.7,32-79.8,18.8
	c1.6,25.6,10.5,37,26.7,34.1c21.5-4.2,37.3-8.8,47.2-13.9c5.5-1.7,8.6,0,9.1,5.2c-3.1,5-8,8.3-14.7,9.9
	c-37,17.9-58.3,21.8-63.8,11.8c-1,24.3,6.6,36.1,22.8,35.5c16.1-2.7,34.2-11,54.3-24.9c4.8-2.7,8-1.9,9.6,2.4
	c1.9,4.6-1.6,9.1-10.6,13.4C94.9,224.7,72,233.8,58,229c6.8,26,22.9,32,48.4,17.9c11.7-8.3,22.2-16.4,31.5-24.1
	c3.9-2.7,7.4-2.4,10.8,0.7c4,3.4,0.8,8.8-9.5,16.4c-29.9,26.1-49.2,37.2-57.8,33.4c13.2,25,31.7,26.8,55.6,5.5
	c12.3-11.9,20.3-21.8,23.8-29.9c3,8.8,8,15.3,15.2,19.5c6.9,7.1,2.7,13.8-12.6,20.1c-12.4,5.2-22.2,7.3-29.3,6.3
	c7.9,6.1,17.9,9.8,29.8,11.1c-0.4,0.7-2.7,1.3-2.7,1.3c-7.4,11.3-20.8,21.6-33.1,30.2c-3,2.1-5.9,4.3-8.6,6.4
	c-7.3,5.6-14.3,10.9-19.1,10.9c-1.1,0-2.1-0.3-3-0.9c-0.9-0.9-1.7-1.7-2.5-2.5c-1.4-1.4-2.8-2.7-4.1-3.9c-6-5.5-10.2-8-13-8
	c-0.1,0-0.2,0-0.2,0c-2.3-2.2-4.8-3.8-7.5-4.5c-1.1-0.3-2.2-0.4-3.2-0.4c-1.1,0-2.2,0.2-3.3,0.5c-2.1,0.7-3.8,2-5,3.9
	c-1.2,2-1.8,4.4-1.8,7.1l0.1,5.2l3.7-3.6c2.5-2.5,3.9-2.8,4.5-2.8c0.7,0,1.3,0.6,1.9,1.8c0.2,2.6,0.7,4.5,1.6,6
	c0.6,1.1,1.5,1.9,2.5,2.4c0.9,0.5,1.9,0.7,3,0.7c0.1,0,0.3,0,0.4,0c1,0,2.2-0.3,3.4-0.8c1.2,0.4,2.4,0.9,3.5,1.3
	c1.3,0.5,2.5,1,3.6,1.5c3.4,1.5,5.3,2.7,6.4,3.6c-3.9-0.1-10.9-1-21-2.4c-0.8-0.3-1.5-0.5-2.1-0.7c-0.8-0.2-1.5-0.4-2.2-0.5
	c-0.8-0.1-1.6-0.2-2.3-0.2c-2.3,0-3.8,0.7-4.7,1.6c-1.5-0.7-3.1-1.1-4.6-1.1c-0.8,0-1.5,0.1-2.2,0.3c-1.6,0.4-3,1.2-4.1,2.4
	c-1.1,1.1-1.9,2.6-2.3,4.1c-0.7,2.9,0,6.1,2,9l3,4.3l1-5.2c0.2-1,0.4-1.6,0.5-2.1c0,0,0,0,0,0.1c2.4,4.4,5.3,6.6,8.5,6.6
	c0.2,0,0.4,0,0.6,0c2-0.2,4.1-1.3,6.1-3.3c6.2-1.6,11.5-2.7,15.8-3.1c1.4-0.1,2.8-0.2,4-0.2c0.6,0,1.2,0,1.8,0.1
	c-7.7,1.6-13.7,3-17.8,4.4c-2.4,0.8-4.2,1.6-5.4,2.3c-1,0.6-1.7,1.3-2.1,2.1c-2.7,0.9-5,2.3-6.6,4.1c-1.6,1.7-2.5,3.8-2.6,6
	c-0.2,2.2,0.4,4.4,1.7,6.4c1.6,2.6,4.4,4.9,7.9,6.6l6.5,3.1l-3.7-6.2c-0.8-1.4-1.3-2.6-1.5-3.6c-0.1-0.5,0-0.9,0.1-1.2
	c0.1-0.3,0.3-0.5,0.7-0.7c0.4-0.2,0.9-0.4,1.6-0.6c1.9,1.2,3.5,1.9,5.1,2.1c0.4,0.1,0.9,0.1,1.3,0.1c0.9,0,1.8-0.2,2.7-0.5
	c1.2-0.5,2.2-1.4,3-2.6c0.5-0.7,0.9-1.6,1.3-2.6c4.8-4.9,9.3-8.7,13.4-11.3c3.9-2.4,7.4-3.8,10.6-4.2c0.8,0.2,1.6,0.4,2.4,0.6
	c0.9,0.2,1.7,0.3,2.4,0.4c1.3,0.2,2.5,0.3,3.5,0.3c2.1,0,3.8-0.4,5-1.2c0.2,0,0.4,0,0.7,0c0.4,0,0.8,0,1.1,0.1
	c2.1,0.2,4.4,1,6.7,2.4l0.2,0.1c2.8,1.5,4.6,2.5,5.7,3.1c0.3,0.2,0.6,0.3,0.8,0.4c0.3,0.8,0.8,1.6,1.4,2.2c1.3,1.3,3.2,2,5.4,2
	c0.3,0,0.7,0,1,0c2.4-0.2,4.6-1.3,5.9-2.8c0.9-1.1,1.4-2.3,1.4-3.6c1.6,0.2,2.5,0.6,3,1c0.3,0.2,1,0.8,0.5,2.9l-1.4,6.1l5-3.9
	c2-1.6,3.3-3.7,3.6-6c0.2-1.6,0-3.3-0.8-4.8c-0.7-1.5-2-2.8-3.5-3.7c-1.9-1.1-4.2-1.7-6.8-1.7c-1,0-2.1,0.1-3.2,0.3
	c-0.3-0.1-0.7-0.3-1-0.4c-0.5-0.2-1.1-0.3-1.6-0.4c-0.9-0.2-1.9-0.3-2.9-0.3c-1.7,0-3.5,0.3-5.4,0.9c-1.2-0.2-2.4-0.4-3.5-0.7
	c-1.2-0.2-2.3-0.5-3.3-0.7c-0.8-0.2-1.5-0.4-2.1-0.5l-0.6-0.3c-4.5-2.1-7-4.3-7-6.2c0-3.7,8.7-7.7,13.3-9.8c1.2-0.5,2.2-1,2.9-1.4
	c22.1-9.4,37.5-19.1,45.7-28.9c0,0,0.3-2.9,0.9-3.9c0.6,6,3.2,11.1,7.8,15.4c1.7-13.1,7.7-21.3,18.2-24.7c8.6-0.3,13.1,2.9,13.3,9.8
	c0.4,12.8-2,18-7.1,15.7c-3.3-1.8-5.7-5-7.2-9.5c-3.1,12-0.2,19.8,8.7,23.6c8.6,0.6,13.2-4.1,13.8-14.1c0.7-5.4,0.7-10.4,0.1-15
	c0-2.6,1.2-3.6,3.6-2.9c5.9,1.7,6.4,9.3,1.6,22.6c-12.2,23.4-24.1,33.7-35.9,31.1c-8.7-1.7-13.3-5.8-13.7-12.2
	c0.4-8.7,9.2-9.9,14.4-5c-1.3-8.4-6.7-12.1-16.1-11.1c-8.4,2.6-12.6,8.4-12.5,17.1c1.2,14,11.7,21.1,31.3,21.4
	c12.9-0.4,23.3-5.8,31.3-16.4c3.6-1.8,4.8-0.5,3.9,4c-5.8,15.8-16.4,23.6-31.8,23.5c-11.1-0.1-19.6-3.4-25.8-9.9
	c4.6,10.8,11.1,16.8,19.5,17.8c-12.9,2.9-29.4,1.9-49.3-3c-20.3-4.5-34.6,0.6-42.8,15.5c-5.1,20.6,2.5,32.4,22.8,35.5
	c13,0.5,23.5-4.1,31.5-13.9c-17.3,5-29.6,4.1-36.7-2.5c-5-6.5-5-12.2,0-17c7.9-6.5,16.3-8,25.3-4.6c38.3,6.5,65.2,2.5,80.8-12
	c7-9,9.9-9.9,8.9-2.9c-0.1,17.4-3.4,25.9-10.1,25.5c-4-0.3-5.9-3.5-5.6-9.7c-8.9,7.6-10.9,16.1-6.1,25.6c2.9,3.8,6.8,4.4,11.7,1.7
	c5.1-2.8,7.9-5.1,8.2-6.9c1.6,6.4-0.3,12.2-5.6,17.3c-5.4,8.2-3.5,17.5,5.5,28c4.4,5.8,6.7,11.9,7,18.4c0,0.1,0.1,0.3,0.1,0.4
	c0-0.1,0.1-0.3,0.1-0.4c0.2-6.4,2.6-12.6,7-18.4c9-10.5,10.8-19.8,5.5-28c-5.3-5.1-7.2-10.9-5.6-17.3c0.4,1.8,3.1,4.1,8.2,6.9
	c5,2.7,8.9,2.1,11.7-1.7c4.8-9.5,2.8-18.1-6.1-25.6c0.3,6.2-1.6,9.4-5.6,9.7c-6.6,0.5-10-8-10.1-25.5c-1-7,1.9-6.1,8.9,2.9
	c15.6,14.5,42.5,18.5,80.8,12c9-3.5,17.4-1.9,25.3,4.6c5,4.8,5,10.5,0,17c-7.1,6.6-19.3,7.5-36.7,2.5c8,9.7,18.5,14.4,31.5,13.9
	c20.3-3.1,27.9-14.9,22.8-35.5c-8.3-14.9-22.5-20.1-42.8-15.5c-20,4.9-36.4,5.9-49.3,3c8.4-1.1,14.9-7,19.5-17.8
	c-6.1,6.5-14.7,9.8-25.8,9.9c-15.4,0.1-26-7.7-31.8-23.5c-1-4.5,0.3-5.8,3.9-4c8,10.6,18.4,16.1,31.3,16.4
	c19.6-0.3,30.1-7.4,31.3-21.4c0.1-8.8-4.1-14.5-12.5-17.2c-9.4-1-14.8,2.7-16.1,11.1c5.2-4.9,14-3.7,14.4,5
	c-0.4,6.4-5,10.5-13.7,12.2c-11.8,2.6-23.8-7.7-35.9-31.1c-4.8-13.4-4.3-20.9,1.6-22.7c2.4-0.6,3.6,0.4,3.6,2.9
	c-0.6,4.6-0.5,9.7,0.1,15c0.6,10,5.2,14.7,13.8,14.1c8.9-3.8,11.8-11.6,8.7-23.6c-1.5,4.5-3.9,7.7-7.2,9.5
	c-5.1,2.4-7.5-2.9-7.1-15.7c0.2-6.9,4.6-10.2,13.3-9.8c10.5,3.4,16.6,11.6,18.2,24.7c4.8-4.4,7.5-9.8,7.9-16.2
	c0.7,1,1.1,3.8,1.1,3.8c8.5,9.4,23.4,18.6,44.4,27.6c0.8,0.4,1.8,0.9,3,1.4c4.6,2.1,13.3,6,13.3,9.8c0,1.9-2.5,4.1-7,6.2l-0.6,0.3
	c-0.6,0.2-1.3,0.4-2.1,0.6c-1,0.2-2.1,0.5-3.3,0.7c-1.1,0.2-2.2,0.4-3.5,0.7c-1.8-0.6-3.6-0.9-5.4-0.9c-1,0-1.9,0.1-2.9,0.3
	c-0.6,0.1-1.1,0.3-1.7,0.4c-0.3,0.1-0.7,0.2-1,0.4c-1.1-0.2-2.2-0.3-3.2-0.3c-2.6,0-4.9,0.6-6.8,1.7c-1.5,0.9-2.8,2.2-3.5,3.7
	c-0.7,1.5-1,3.1-0.8,4.8c0.3,2.3,1.6,4.4,3.6,6l5,3.9l-1.4-6.1c-0.5-2.1,0.2-2.6,0.5-2.9c0.5-0.4,1.3-0.8,3-1c0,1.3,0.5,2.6,1.4,3.6
	c1.3,1.5,3.5,2.6,5.9,2.8c0.3,0,0.7,0,1,0c2.2,0,4.1-0.7,5.4-2c0.6-0.6,1.1-1.4,1.4-2.2c0.2-0.1,0.5-0.3,0.8-0.4
	c1.1-0.6,2.9-1.6,5.8-3.1c2.3-1.4,4.6-2.3,6.7-2.5c0.4,0,0.7-0.1,1.2-0.1c0,0,0,0,0,0c0.2,0,0.4,0,0.6,0c1.2,0.8,2.8,1.2,5,1.2
	c1,0,2.2-0.1,3.5-0.3c0.7-0.1,1.6-0.3,2.4-0.5c0.8-0.2,1.5-0.3,2.4-0.6c3.1,0.3,6.7,1.7,10.6,4.2c4.1,2.6,8.6,6.4,13.4,11.3
	c0.4,1,0.8,1.8,1.3,2.6c0.8,1.2,1.8,2.1,3,2.6c0.8,0.4,1.7,0.5,2.7,0.5c0.4,0,0.8,0,1.3-0.1c1.6-0.3,3.2-0.9,5.1-2.1
	c0.7,0.1,1.2,0.3,1.6,0.6c0.3,0.2,0.6,0.4,0.7,0.7c0.1,0.3,0.2,0.7,0.1,1.2c-0.1,1-0.6,2.2-1.5,3.6l-3.7,6.2l6.5-3.1
	c3.5-1.7,6.2-3.9,7.9-6.6c1.3-2,1.8-4.3,1.7-6.4c-0.2-2.2-1.1-4.3-2.6-6c-1.6-1.8-3.9-3.2-6.6-4.1c-0.4-0.8-1.1-1.5-2.1-2.1
	c-1.2-0.8-3-1.5-5.4-2.3c-4.1-1.3-10.1-2.8-17.8-4.4c0.6,0,1.2-0.1,1.8-0.1c1.2,0,2.6,0.1,4,0.2c4.3,0.4,9.6,1.4,15.8,3.1
	c2,2,4.1,3.1,6.1,3.3c0.2,0,0.4,0,0.6,0c3.2,0,6-2.2,8.5-6.6c0,0,0,0,0-0.1c0.2,0.5,0.3,1.1,0.5,2.1l1,5.2l3-4.3c2-2.9,2.7-6,2-9
	c-0.4-1.6-1.2-3-2.3-4.1c-1.1-1.1-2.5-2-4.1-2.4c-0.7-0.2-1.5-0.3-2.2-0.3c-1.5,0-3.1,0.4-4.6,1.1c-1-0.9-2.5-1.6-4.8-1.6
	c-0.7,0-1.5,0.1-2.3,0.2c-0.7,0.1-1.4,0.3-2.2,0.5c-0.7,0.2-1.4,0.4-2.1,0.7c-10,1.5-17.1,2.3-21,2.4c1.1-0.9,3.1-2.1,6.4-3.6
	c1.1-0.5,2.3-1,3.6-1.5c1.1-0.4,2.3-0.9,3.5-1.3c1.2,0.5,2.3,0.7,3.4,0.8c0.1,0,0.3,0,0.4,0c1.1,0,2.1-0.2,3-0.7
	c1-0.5,1.8-1.4,2.4-2.4c0.9-1.5,1.4-3.5,1.6-6c0.6-1.2,1.2-1.8,1.9-1.8c0.6,0,2,0.4,4.5,2.8l3.7,3.6l0.1-5.2c0-2.8-0.6-5.2-1.8-7.1
	c-1.2-1.9-2.9-3.2-5-3.9c-1-0.3-2.1-0.5-3.3-0.5c-1,0-2.1,0.1-3.2,0.4c-2.6,0.7-5.2,2.3-7.5,4.5c-0.1,0-0.2,0-0.2,0
	c-2.9,0-7,2.5-13,8c-1.3,1.1-2.6,2.4-4.1,3.9c-0.8,0.8-1.6,1.6-2.5,2.5c-0.9,0.6-1.8,0.9-3,0.9c-4.8,0-11.7-5.3-19.1-10.9
	c-2.8-2.1-5.7-4.3-8.6-6.4c-11.4-8.1-24-17.6-31.6-28.1c0,0-2.3-0.5-2.8-1.2c11.8-1.4,21.6-5.1,29.4-11.1c-7.1,1-16.8-1.2-29.3-6.3
	c-15.3-6.3-19.5-13-12.6-20.1c7.2-4.2,12.2-10.7,15.2-19.5c3.5,8,11.5,18,23.8,29.9c23.9,21.4,42.4,19.5,55.6-5.5
	c-8.6,3.8-27.9-7.3-57.8-33.3c-10.4-7.5-13.5-13-9.5-16.4c3.3-3.1,6.9-3.3,10.8-0.7c9.3,7.7,19.8,15.7,31.5,24.1
	c25.5,14,41.7,8,48.4-17.9c-14,4.7-36.9-4.3-68.8-27.1c-9-4.3-12.6-8.8-10.6-13.4c1.6-4.3,4.8-5.1,9.6-2.4
	c20.1,13.9,38.2,22.2,54.3,24.9c16.2,0.6,23.8-11.2,22.8-35.5c-5.5,10-26.8,6.1-63.8-11.8c-6.7-1.7-11.6-5-14.7-9.9
	c0.6-5.2,3.6-6.9,9.1-5.2c9.9,5,25.7,9.7,47.2,13.9c16.2,2.8,25.1-8.6,26.7-34.1c-8,13.2-77.2-3.4-79.8-18.8
	C357.3,98.1,387.2,113.8,406.7,115.5z"/>
<path fill="none" stroke="#FFFFFF" stroke-width="1.5936" d="M245.4,74.2c17.2-30.1-17.5-25.9-17.2-46.5l0,0"/>
<path stroke="#F2F2F2" stroke-width="0.7968" d="M246.5,32.8c-1.7-0.2-5.1-2.1-4.7-3.7l0,0c3.7,0,3,2.9,8.1,2.3c0,0,5.4-2,7.2,7.2
	c0.2,1.1-0.6,3.4-5.3,2.8C243.2,40.5,246.5,32.8,246.5,32.8z"/>
<path fill-rule="evenodd" clip-rule="evenodd" fill="#F2F2F2" d="M251.4,32.5c-0.4,0-1.2,0-1.2,0c-0.3,0.1-2.3,0-2.3,0
	s-1.5,3.9-0.2,5.7c0,0,3.4,3.5,7.6,1.6c0,0,1.8-0.5,0.2-2.8c0,0-0.6-2-1.4-2.5c0,0,0.1,2.6-0.9,2.7c0,0-3.1,1.3-3.9-2.1
	c0,0-0.2-1.9,2.5-2.2C251.8,32.8,252.6,32.5,251.4,32.5z"/>
<path fill-rule="evenodd" clip-rule="evenodd" fill="#E1001A" d="M240.7,54.4c-0.2,0.1-0.9,0.3-1.9,0.6c-5.1,1.7-18.5,6.2-26.6,6.2
	c-4.5,0-7.1-1.4-7.7-4.1l-0.3-1.4c-0.4-1.9-0.8-3.7-1.1-5.1c-0.8,2.5-1.9,6.4-2.7,9.3c-0.4,1.6-0.3,2.9,0.3,3.9
	c0.9,1.4,3,2.4,6.1,2.9c1.1,0.2,2,0.3,2.8,0.3c2.2,0,4-0.6,8-2c4.4-1.5,11-3.8,22.9-7L240.7,54.4z"/>
<path fill-rule="evenodd" clip-rule="evenodd" fill="#F2F2F2" d="M324.1,144.9c-3.4,24.9-6.2,50-10.5,74.8
	c-2.7,15.7-3.6,32.2-11.7,46.3c-25.1,41.7-92.1,40.6-115.8-1.6c-7.3-14.8-8.5-31.6-11.1-47.8c-4-23.8-6.7-47.9-10-71.8L324.1,144.9
	L324.1,144.9z"/>
<path fill-rule="evenodd" clip-rule="evenodd" fill="#E1001A" d="M242.7,148.5h77.5c-3.4,24.4-6,48.9-10.4,73.2
	c-2.6,14.7-3.3,30.6-11.6,43.5c-27.1,42-101.6,35-114.2-15.8c-2.1-8.3-2.9-17.4-4.4-25.9c-4.4-24.9-7.2-50-10.7-75L242.7,148.5
	L242.7,148.5L242.7,148.5z"/>
<path fill="#1A171B" d="M239.6,171.6c2.7,1.8,5.1,4,7.7,5.9c2.7,2,6.1,2.8,9.3,3.1c6.1,0.7,12.3-0.3,18.3-1.2
	c-6.6,5.7-14,11.2-23.1,11c3.3,2.6,7.3,3.9,11.3,4.9c-2.7,1.6-5.3,2.7-8.4,2.9c-4.2,0.3-8.4-0.7-12.4-2c-2.2-0.7-4.4-1.6-6.5-2.5
	c-1.6-0.9-3.1-2.3-4.4-3.5c-2.8-2.7-4.7-6.2-4.1-10.2c0.2-1.1,0.5-2.2,0.9-3.2c0.4-1,0.6-1.6-0.3-2.4c-1.3-1.1-3.5-1-5.1-0.8
	c-2,0.2-3.8,2.4-5.5,3.5c-1.8,1.2-3.8,2.1-5.9,2.7c-7.4,2.2-14.4-1.1-20.7-4.8c2.4-0.7,4.9-1.5,7.2-2.5c2-0.9,4.5-1.3,5.8-3.2
	c-3.6,0.9-7.7,1.7-11.4,1.1c-1.1-0.2-2.2-0.6-3.1-1.3c-0.4-0.3-0.7-0.7-0.9-1.1c-0.4-0.6-0.3-0.5,0-1.1c5.1-6.1,11.7-11.1,19.7-12.6
	c4-0.7,8.1-0.6,12.1,0.2c5,1,9.4,3.5,14.3,4.5c8.7,1.9,17.3,0.2,25.8-1.6c9.2-2,18.8-3.4,27,2.3c5.6,3.9,9.6,9.8,12.9,15.7
	c2.3,4.2,4.3,8.3,5.4,13c1.1,4.7,1.5,9.5,1.2,14.4c-0.6,8.3-3.5,16.8-9.3,22.9c-2.6,2.8-5.7,5-9.2,6.4c-2.1,0.8-4.3,1.4-6.5,2.1
	c-2.4,0.8-4.7,1.7-7.1,2.5c-6.9,2.5-13.8,5.2-20.4,8.5c-2.7,1.4-5.4,2.8-7.7,4.8c-1.1,0.9-2.9,2.7-1.9,4.2c0.8,1.2,2.7,2.1,3.9,2.6
	c5.7,2.3,12.6,1.1,18.3-0.5c6.7-1.8,13-4.5,19.2-7.3c-1.7,2.6-3.2,5.4-5,8c-0.6,0.9-1.3,1.8-2,2.6c-0.4,1-0.8,2-1.2,3
	c-0.9,2-1.9,4-3.1,5.8c-4,6.6-9.8,12-16.9,14.9c-14.3,6-34.7,3.8-44.8-9.1c-5-6.4-6.7-14.7-6.7-22.7c0.2-7.7,2.7-15.6,7.8-21.5
	c5.2-6,12.2-8.9,19.5-11.3c8.8-2.8,17.6-5.4,26.6-7.3c3.7-0.8,7.4-1.2,10.9-2.6c3.9-1.6,7.3-4,10.4-6.8c1.5-1.4,3.7-3.1,4.2-5.1
	c0.6-2.3,0.9-4.8,0.8-7.1c-0.2-3.6-0.8-7.4-2.2-10.7c-5.6-13.2-21.7-9.9-33-8.6C247.5,171.2,243.6,171.7,239.6,171.6"/>
<path fill="#F2F2F2" d="M241.5,284.4c-0.8,0-1.5,0-2.3,0c-1.8-0.1-3.3-0.2-4.8-0.5c1.3-2.1,2.1-4.4,2.4-6.6c1.5,0.3,3.1,0.5,4.8,0.6
	c0.1,1.6,0.1,3.1,0.1,4.5l0,1.7c0,0.1,0,0.3,0,0.4L241.5,284.4z M244.8,284.3c0-1.8,0-4.1-0.1-6.3c1.1,0,2.1-0.2,3.1-0.3l0.8-0.1
	c0.6-0.1,1.3-0.2,1.9-0.3c0.3,0.2,0.5,0.4,0.8,0.6c0.8,0.7,1.3,1.3,1.5,1.9c0.4,0.9,0.2,1.7-0.1,2.3c-0.4,1-0.7,1.2-1.5,1.4
	C249.2,283.8,247,284.1,244.8,284.3L244.8,284.3z M231.1,283.1c-0.9-0.3-1.8-0.5-2.7-0.8c-1.4-0.5-2.8-1.1-4.1-1.7
	c1.8-1.6,3.3-3.8,4.1-6.3c1.6,0.9,3.3,1.6,5.2,2.2c0,0.1,0,0.1,0,0.2c-0.1,0.4-0.1,0.8-0.2,1.2c-0.2,1-0.5,1.9-1,2.9
	C232.1,281.5,231.6,282.3,231.1,283.1L231.1,283.1z M256,281.9c0.4-1.9-0.2-3.9-1.7-5.5c1.8-0.4,3.5-0.9,5.1-1.5c0.1,0,0.1,0,0.2,0
	c0.9,0,2.4,1.3,2.6,2.1c0.1,0.5,0.1,1.1-0.2,1.9c-0.1,0.4-1,0.8-1.5,1c-0.2,0.1-0.4,0.2-0.5,0.3C258.7,280.8,257.4,281.4,256,281.9
	L256,281.9z M221.4,278.9c-0.8-0.5-1.5-1-2.2-1.6c-1.2-1-2.4-2-3.4-3.2c2.9-1.3,5.1-2.9,6.7-4.8c0.5,0.6,1,1.2,1.6,1.7
	c0.2,0.2,0.5,0.4,0.7,0.6c0.2,0.2,1,0.7,0.9,0.9c-0.6,2.1-1.5,3.7-2.7,5C222.5,278,222,278.5,221.4,278.9L221.4,278.9z M265.3,276.6
	c-0.2-1.3-1-2.4-2.1-3.3c0.8-0.4,1.6-0.8,2.4-1.2c0.8,0.3,1.6,0.7,2.2,1.2c0.2,0.1,0.2,0.2,0.2,0.3
	C267.9,274.5,266.4,275.8,265.3,276.6L265.3,276.6z M243.2,274.7c-4.9,0-9.3-1-13-3.1c-5-2.7-8.4-7.6-9.7-13.8
	c-1.5-7.7,0.6-16.4,5.3-22.3c4.4-5.4,11.1-9.7,20.5-13c3.5-1.2,7.2-2,10.8-2.8c4.6-1,9.4-2,13.9-4c7.1-3.1,12.1-7.4,15-12.8
	c3.6-6.8,3.9-15.8,0.7-24.1c-2.8-7.2-8.9-11.2-17.6-11.7c-0.9,0-1.7-0.1-2.6-0.1c-4.1,0-8.3,0.5-12.4,1l-1.3,0.2
	c-3.6,0.4-7.3,0.9-11,1c-0.5,0-0.9,0-1.4,0c-1.3,0-2.5-0.1-3.7-0.2c-0.2,0-0.4-0.1-0.6-0.1c-0.4-0.1-0.8-0.1-1.2-0.1
	c-0.8,0-1.4,0.3-1.9,0.9l-0.5,0.6l0.6,0.5c0.9,0.7,1.9,1.2,2.9,1.6c0.7,0.3,1.5,0.7,2.2,1.2c1.3,0.9,2.6,1.9,3.9,3
	c1.6,1.3,3.2,2.6,4.9,3.6c3.5,2,7.8,3,13.3,3c2.2,0,4.4-0.2,6.4-0.4c-5.1,3.4-10,5.2-14.7,5.2c-0.7,0-1.4,0-2-0.1
	c-6-0.7-11.9-4.3-17.6-10.8c-0.6-0.7-1.2-1.4-1.7-2.1c-0.2-0.7-0.6-1.4-1-1.9c-1-1.1-2.5-1.8-4.6-1.9c-0.6,0-1.2-0.1-1.9-0.1
	c-1.6,0-2.6,0.2-3.1,0.7c-1.5,1.4-2.9,2.5-4.4,3.4c-3.2,2-6.8,3.1-10.5,3.1c-2.9,0-5.9-1.4-8.8-2.7c2.3-0.8,4.8-1.9,6.9-3.6
	c1.8-1.4,2.7-2.3,3.1-4.7l0.2-1.2l-2.4,0.6c-3,0.8-6.2,1.6-9.2,1.6c-0.9,0-1.8-0.1-2.6-0.2c-0.6-0.1-1.2-0.3-1.6-0.6
	c0,0-0.1-0.1-0.1-0.1c0.2-0.3,0.6-0.6,0.7-0.8l0.2-0.2c2-2.2,4.2-4,6.3-5.5c4.5-3,9.6-4.6,15.1-4.6c4.9,0,10.1,1.2,15.4,3.6
	c4.2,1.6,8.8,2.4,13.8,2.4c3.9,0,8.1-0.5,12.9-1.4c1.4-0.3,2.8-0.6,4.2-0.9c4.4-1,9-2,13.5-2c0.3,0,0.6,0,0.9,0
	c5.9,0.2,11.5,2.8,16.1,7.5c1.3,1.4,2.6,2.9,3.9,4.7c0.7,0.9,1.3,1.9,1.9,2.9c0.1,0.3,0.3,0.9,0.5,1.5c0.1,0.4,0.3,0.9,0.4,1.2
	c1.7,4.7,2.7,8.9,3.1,12.9c0.8,7.6-1.1,15.2-5.2,21.3c-3.6,5.3-9,9.6-16.1,12.9c-6,2.8-12.6,4.6-18.9,6.4c-7.2,2-14.7,4.2-21.6,7.7
	c-4.5,2.3-7.5,5.4-9.1,9.4c-1,2.4-1.8,5.3-1.1,8.3c1,4.2,3.8,7.1,5.9,8.9c4.1,3.4,9.3,5.1,15.5,5.1c0.9,0,1.9,0,2.9-0.1
	c7.3-0.6,14.4-2.7,20.3-4.9c-5.4,4.8-12,8.2-19.4,9.9C249.7,274.3,246.3,274.7,243.2,274.7L243.2,274.7z M208.4,158.6
	c-2.2,0-3.3,1.7-3.3,3.4c0,1.7,1.1,3.4,3.3,3.4s3.3-1.7,3.3-3.4C211.8,160.4,210.6,158.6,208.4,158.6L208.4,158.6z M213.9,271.6
	c-0.7-1-1.2-2-1.7-3c-0.8-1.7-1.5-3.5-2-5.5c0.7,0.1,1.4,0.1,2,0.1c2.6,0,4.7-0.5,6.3-1.4c0.3,0.9,0.6,1.8,1,2.6
	c0.1,0.2,0.3,0.5,0.5,0.8c0.2,0.4,0.7,1.2,0.7,1.5c-0.9,1.4-2.5,2.7-4.5,3.8c-0.6,0.3-1.2,0.6-1.8,0.9
	C214.1,271.4,214,271.5,213.9,271.6L213.9,271.6z M270.2,271.4c-0.4-0.4-0.9-0.8-1.4-1.1c1.5-0.9,2.9-2,4.3-3.1
	C272.2,268.7,271.2,270.1,270.2,271.4L270.2,271.4z M248.3,265.5c1.3-1.2,2.3-2.6,2.9-4.3c0.1-0.2,0.1-0.4,0.2-0.7
	c0-0.1,0-0.1,0-0.2c0.4,0.1,0.8,0.1,1.2,0.2c0.3,0,0.7,0,1,0.1c0.9,0,1.5,0.1,1.8,0.5c0.4,0.5,0.4,1.5,0,2.5c-0.4,0.9-1,1.6-1.6,1.6
	c-1.7,0.2-3.3,0.3-4.9,0.3C249,265.5,248.6,265.5,248.3,265.5z M242.9,264.7c-0.4,0-0.7-0.1-1.2-0.2c-2-0.6-3.8-1.5-5.3-2.8
	c2.9-0.1,5.5-0.8,7.5-2.1c0.7-0.4,1.3-0.9,1.9-1.5c0,0.1,0.4,0.3,0.6,0.4c0.2,0.2,0.5,0.3,0.7,0.4c0.2,0.1,0.5,0.2,0.7,0.2
	c0.1,0,0.4,0.1,0.5,0.2c-0.2,0.6-0.3,1.1-0.6,1.6c-0.6,1.2-1.5,2.2-2.6,2.9C244.3,264.5,243.6,264.7,242.9,264.7L242.9,264.7z
	 M258.4,264.4c0.6-1.4,0.7-2.7,0.3-3.9c1.2-0.1,2.5-0.3,3.8-0.5c0.2,0,0.4-0.1,0.5-0.1c0,0,0.1,0,0.1,0c0.2,0.2,0.3,0.5,0.4,0.7
	c0.3,0.6,0.4,1.2,0.4,1.7c0,0.6,0,0.8,0,0.8c0,0-0.1,0.1-0.7,0.3c-0.7,0.2-1.5,0.4-2.2,0.6C260.1,264.1,259.3,264.3,258.4,264.4
	L258.4,264.4z M267,262.1c0-1-0.3-2-0.7-3c4.3-1,8.8-2.6,14-4.8c-0.5,0.7-1,1.5-1.5,2.2l-0.3,0.4c-0.4,0.6-0.8,1.1-1.3,1.3
	c-0.7,0.3-1.5,0.6-2.2,0.9C272.1,260.4,269.5,261.3,267,262.1L267,262.1z M212,260c-0.3,0-0.5,0-0.8,0c-0.6,0-1.1-0.1-1.7-0.1
	c0,0,0,0,0,0c0-0.1,0-0.3-0.1-0.5c-0.3-2-0.5-4.2-0.6-6.5c2.3,0.4,4.3,0.5,6.2,0.5c0.6,0,1.3,0,1.9-0.1c0,1.3,0.2,2.6,0.5,4.1
	c0,0.2,0.1,0.3,0.1,0.5c0,0.2,0.1,0.5,0.1,0.6c-0.2,0.1-0.5,0.3-0.8,0.5c-0.6,0.3-1.4,0.6-2.4,0.7C213.7,260,212.9,260,212,260
	L212,260z M235.8,258.7c-0.7,0-1.5,0-2.3-0.1c-2-2.9-2.8-5.3-2.6-7.5c3.8,1.8,7.1,2.7,10.1,2.7c0.4,0,0.7,0,1,0c0,1,0.4,1.9,1.2,2.7
	C241.4,257.9,238.9,258.7,235.8,258.7L235.8,258.7z M241.1,250.5c-2.2,0-4.5-0.5-7.2-1.7c-0.6-0.3-1.3-0.5-1.9-0.9
	c-0.1,0-0.2-0.1-0.2-0.1c0-0.1,0.1-0.1,0.1-0.2c0.4-1.1,0.9-2,1.5-2.9c1-1.5,2.5-2.8,4.4-4c2.3,2.8,5.3,5.1,8.7,6.7
	c-0.8,0.6-1.5,1.2-2.1,1.8c-0.3,0.4-0.6,0.7-0.9,1c-0.5,0.1-0.9,0.2-1.4,0.2C241.6,250.5,241.4,250.5,241.1,250.5L241.1,250.5z
	 M214.6,250.3c-1,0-2-0.1-3.1-0.2c-0.7-0.1-1.4-0.2-2.1-0.3c-0.1,0-0.3,0-0.4,0c0.1-1.1,0.2-2.2,0.4-3.2c0.3-1.8,0.7-3.5,1.2-5
	l0.3,0.1c2.2,1,4.6,2,7.1,2.4c-0.5,2-0.9,4.1-1,6.3c0,0-0.6,0-0.6,0l-0.2,0c-0.4,0-0.7,0-1.1,0L214.6,250.3z M249.5,245.3
	c-0.1,0-0.3-0.1-0.6-0.2c-0.6-0.3-1.3-0.5-1.9-0.8c-2.5-1.3-4.7-3-6.5-5.1c2.7-1.3,5.5-2.3,8.1-3.2c1.1,2.9,3,5.2,5.4,6.9
	c-1.3,0.6-2.5,1.3-3.6,1.9l-0.2,0.1C249.8,245.3,249.6,245.3,249.5,245.3L249.5,245.3z M257.4,241.4c0,0-0.1,0-0.1,0
	c-0.6-0.3-1.1-0.6-1.6-0.9c-1.9-1.3-3.3-3.1-4.2-5.3c1.5-0.5,3.1-1,4.6-1.5l2-0.7c0.7,2.3,2.1,4.5,4,6.4c-1.2,0.5-2.4,1-3.6,1.6
	c-0.2,0.1-0.3,0.2-0.5,0.2C257.8,241.2,257.5,241.4,257.4,241.4L257.4,241.4z M219,241.2c-0.8,0-1.9-0.4-2.8-0.8
	c-0.3-0.1-0.5-0.2-0.8-0.3c-1-0.4-2.1-0.8-3.1-1.2c-0.2-0.1-0.4-0.2-0.7-0.3c0.1-0.3,0.2-0.5,0.4-0.8c0.8-1.7,1.8-3.3,2.9-4.7
	c1.7,1.6,3.8,3,6,3.9c-0.5,0.8-1,1.7-1.4,2.6c-0.1,0.1-0.1,0.3-0.2,0.6C219.3,240.4,219.2,240.9,219,241.2L219,241.2z M265.3,238
	c-0.6,0-2.1-1.8-3.3-3.8c-0.4-0.6-0.7-1.3-0.9-2c0-0.1-0.1-0.2-0.1-0.2c0.3-0.1,0.7-0.2,1-0.3c2.1-0.5,4.1-1.1,6-1.7
	c0.5,2,1,4.2,2.1,6C268.6,236.7,267,237.3,265.3,238L265.3,238z M273.1,234.9c-0.3-0.4-0.5-1-0.7-1.5c-0.3-0.8-0.6-1.7-0.9-2.8
	c-0.1-0.5-0.3-1-0.4-1.5c0.1,0,0.3-0.1,0.5-0.1c1.8-0.6,3.5-1.2,5.1-1.9c0.6,2.1,1.5,4.1,2.8,5.7c-1.9,0.7-3.7,1.3-5.6,2
	C273.8,234.8,273.3,235,273.1,234.9C273.2,235,273.1,235,273.1,234.9z M222.8,234.4c-0.3-0.1-0.6-0.2-0.9-0.3
	c-1.9-0.8-3.5-1.9-4.9-3.3l0.2-0.2c0.4-0.4,0.8-0.8,1.2-1.1c0.6-0.5,1.1-1,1.7-1.4c0,0,0,0,0,0c0.1,0.1,0.2,0.2,0.4,0.3
	c1.8,1.1,3.5,2.1,5.2,2.8c-0.7,0.7-1.3,1.4-1.9,2C223.5,233.5,223.1,233.9,222.8,234.4L222.8,234.4z M282.6,231.7
	c-0.2-0.2-0.6-0.6-0.7-0.8l-0.2-0.2c-1-1.3-1.8-2.9-2.2-4.8c0.3-0.2,1-0.5,1.4-0.6c0.3-0.1,0.6-0.2,0.8-0.3c0.7-0.4,1.5-0.7,2.2-1.1
	c1.1,2.9,2.6,4.9,4.4,6c-1.3,0.6-2.7,1-4.2,1.4c-0.5,0.1-0.8,0.3-1.2,0.4L282.6,231.7z M228.4,228.7c-0.6-0.2-1-0.4-1.5-0.6
	c-1.3-0.6-2.6-1.3-3.9-2.1c0.5-0.3,1.1-0.6,1.7-1c0.2-0.1,0.3-0.2,0.5-0.3c0.4-0.3,0.8-0.5,1.1-0.5c0.1,0,0.3,0,0.4,0.1
	c1.4,0.7,2.8,1.5,4.2,2.4c-0.7,0.5-1.3,0.9-1.9,1.4c-0.1,0.1-0.3,0.2-0.4,0.3C228.5,228.7,228.4,228.7,228.4,228.7L228.4,228.7z
	 M291.4,227.6c-0.7,0-1.6-0.4-2.3-1.1c-1.2-1.2-2-2.8-2.5-4.3c1.5-0.9,2.9-1.9,4.2-2.9c1.6,1.8,3.4,3.4,5.4,4.4
	c-1.1,1.3-2.4,2.5-3.7,3.4C292.3,227.4,291.9,227.6,291.4,227.6L291.4,227.6z M233.7,225C233.7,225,233.6,225,233.7,225
	c-1.2-0.8-2.5-1.6-3.7-2.3c0.6-0.2,1.2-0.4,1.9-0.6l0.6-0.2c0.1,0,0.3-0.1,0.6-0.2c0.4-0.2,1.4-0.6,1.9-0.6c0.8,0.7,1.5,1.3,2.3,2
	c-0.6,0.3-1.3,0.7-1.9,1c-0.2,0.1-0.4,0.3-0.6,0.4C234.3,224.7,233.9,225,233.7,225L233.7,225z M238.4,220.1c1.5-0.5,3-0.9,4.4-1.3
	c0,0,0,0,0,0c0.5,0,1.3,0.6,1.9,1.2c-1.6,0.6-3.1,1.2-4.5,1.8C240.3,221.7,239,220.6,238.4,220.1z M298.2,221.1
	c-1.9-0.6-3.5-2.2-4.9-3.8c1-1,2-1.9,2.9-3c1,0.9,2.4,1.3,4.1,1.3c0.4,0,0.8,0,1.2-0.1c-0.5,1.1-1,2.2-1.6,3.2
	c-0.4,0.6-0.8,1.3-1.2,1.9c0,0-0.3,0.4-0.3,0.5C298.3,221.1,298.2,221.1,298.2,221.1z M248.2,218.8c-0.3-0.3-0.6-0.6-0.9-0.8
	c-0.2-0.1-0.3-0.2-0.5-0.4c1.3-0.4,2.6-0.7,3.9-1.1c0.1,0.1,0.3,0.2,0.4,0.3c0.1,0.1,0.3,0.3,0.4,0.3c0.2,0.2,0.5,0.3,0.7,0.5
	c-1.1,0.2-2.2,0.5-3.3,0.9c-0.1,0-0.3,0.1-0.4,0.2C248.3,218.7,248.3,218.8,248.2,218.8L248.2,218.8z M256.7,216.8
	c-0.2,0-0.3,0-0.8-0.3s-1-0.7-1.5-1c0.9-0.3,1.9-0.6,2.5-0.6c0,0,0,0,0,0c0,0,0,0,0,0c0.5,0.6,1.1,1.1,1.6,1.6
	c-0.4,0.1-0.8,0.2-1.1,0.2C257.1,216.8,256.9,216.8,256.7,216.8L256.7,216.8z M263,215.2c-0.4,0-0.8-0.1-1.4-0.5
	c-0.3-0.2-0.6-0.4-0.9-0.7c1.6-0.3,3.4-0.7,5.5-1c1.1-0.2,2.3-0.5,3.4-0.8c0.1,0.2,0.3,0.5,0.4,0.7c0,0,0,0,0,0
	c-1.7,0.8-3.5,1.4-5.5,2C263.8,215.1,263.3,215.2,263,215.2L263,215.2z M300.1,212.5c-0.7,0-1.2-0.1-1.7-0.3
	c-0.4-0.2-0.5-0.3-0.5-0.4c0.5-0.6,0.9-1.2,1.2-1.8c0.7-1.3,1.3-2.6,1.8-4c0.9-2.8,1.5-6,1.9-8.6c0.5-2.9,0.5-6,0.2-9.4
	c1.2,4.7,1.7,9.5,1.4,14.3c-0.2,2.9-0.6,5.7-1.3,8.3c-0.1,0.5-0.3,1-0.5,1.5c-0.6,0.1-1.1,0.2-1.6,0.3
	C300.7,212.5,300.4,212.5,300.1,212.5L300.1,212.5z M272.7,211.6c-0.1-0.1-0.2-0.3-0.3-0.4c1.6-0.7,3.1-1.5,4.6-2.4
	c-0.9,0.7-1.9,1.4-3,2c-0.1,0.1-0.3,0.2-0.4,0.3C273.4,211.2,272.9,211.6,272.7,211.6L272.7,211.6z M253.1,195.9
	c-4.8,0-9.9-1.7-14.1-3.4c-3.3-1.3-6.2-3.6-8.1-6.4c-1.7-2.6-1.6-5.3-1-7.4c6,7.1,12.4,11.2,19.1,12.2c2,1.9,4.5,3.5,7.5,4.7
	C255.5,195.8,254.3,195.9,253.1,195.9L253.1,195.9z"/>
</svg>
